<svg height="512.00003pt" viewBox="0 0 512.00003 512.00003" width="512.00003pt" xmlns="http://www.w3.org/2000/svg" xmlns:xlink="http://www.w3.org/1999/xlink"><linearGradient id="a" gradientTransform="matrix(426.664062 0 0 290.132812 8.535156 59.734375)" gradientUnits="userSpaceOnUse" x1=".11514" x2=".93172" y1="-.100412" y2="1.100412"><stop offset="0" stop-color="#dae5f4"/><stop offset=".172" stop-color="#dae5f4"/><stop offset=".2" stop-color="#dae5f4"/><stop offset=".201" stop-color="#ebecf4"/><stop offset=".201" stop-color="#f6f1f4"/><stop offset=".202" stop-color="#fdf4f4"/><stop offset=".205" stop-color="#fff5f4"/><stop offset=".252" stop-color="#fff5f4"/><stop offset=".26" stop-color="#fff5f4"/><stop offset=".26" stop-color="#dae5f4"/><stop offset=".397" stop-color="#dae5f4"/><stop offset=".42" stop-color="#dae5f4"/><stop offset=".421" stop-color="#ebecf4"/><stop offset=".421" stop-color="#f6f1f4"/><stop offset=".422" stop-color="#fdf4f4"/><stop offset=".425" stop-color="#fff5f4"/><stop offset=".489" stop-color="#fff5f4"/><stop offset=".5" stop-color="#fff5f4"/><stop offset=".5" stop-color="#eeeef4"/><stop offset=".5" stop-color="#e3e9f4"/><stop offset=".5" stop-color="#dce6f4"/><stop offset=".501" stop-color="#dae5f4"/><stop offset=".706" stop-color="#dae5f4"/><stop offset=".74" stop-color="#dae5f4"/><stop offset=".741" stop-color="#fff5f4"/><stop offset=".835" stop-color="#fff5f4"/><stop offset=".85" stop-color="#fff5f4"/><stop offset=".851" stop-color="#dae5f4"/></linearGradient><path d="m290.132812 443.734375v51.199219c0 4.710937-3.820312 8.53125-8.53125 8.53125h-51.203124c-4.710938 0-8.53125-3.820313-8.53125-8.53125v-51.199219zm0 0" fill="#7fabfa"/><path d="m315.734375 392.535156v51.199219c0 4.710937-3.820313 8.53125-8.535156 8.53125h-102.398438c-4.714843 0-8.535156-3.820313-8.535156-8.53125v-51.199219zm0 0" fill="#7fabfa"/><path d="m170.667969 8.535156h170.664062c14.140625 0 25.601563 11.460938 25.601563 25.597656v341.332032c0 14.140625-11.460938 25.601562-25.601563 25.601562h-170.664062c-14.140625 0-25.601563-11.460937-25.601563-25.601562v-341.332032c0-14.136718 11.460938-25.597656 25.601563-25.597656zm0 0" fill="#7fabfa"/><path d="m264.535156 443.734375v51.199219c0 4.710937-3.824218 8.53125-8.535156 8.53125h-25.601562c-4.710938 0-8.53125-3.820313-8.53125-8.53125v-42.667969h-25.601563v-8.53125zm0 0" fill="#a4c2f7"/><path d="m290.132812 392.535156v51.199219c0 4.710937-3.820312 8.53125-8.53125 8.53125h-85.335937v-51.199219h-25.597656v-8.53125zm0 0" fill="#a4c2f7"/><path d="m170.667969 8.535156h145.066406c14.136719 0 25.597656 11.460938 25.597656 25.597656v341.332032c0 14.140625-11.460937 25.601562-25.597656 25.601562h-145.066406c-14.140625 0-25.601563-11.460937-25.601563-25.601562v-341.332032c0-14.136718 11.460938-25.597656 25.601563-25.597656zm0 0" fill="#a4c2f7"/><path d="m42.667969 59.734375h426.664062c18.851563 0 34.132813 15.28125 34.132813 34.132813v221.867187c0 18.851563-15.28125 34.132813-34.132813 34.132813h-426.664062c-18.851563 0-34.132813-15.28125-34.132813-34.132813v-221.867187c0-18.851563 15.28125-34.132813 34.132813-34.132813zm0 0" fill="#a4c2f7"/><path d="m42.667969 59.734375h401.066406c18.851563 0 34.132813 15.28125 34.132813 34.132813v221.867187c0 18.851563-15.28125 34.132813-34.132813 34.132813h-401.066406c-18.851563 0-34.132813-15.28125-34.132813-34.132813v-221.867187c0-18.851563 15.28125-34.132813 34.132813-34.132813zm0 0" fill="#a4c2f7"/><path d="m435.199219 59.734375v290.132813h-392.53125c-18.851563 0-34.132813-15.28125-34.132813-34.132813v-25.601563c-.027344-4.527343 1.792969-8.871093 5.03125-12.03125 3.164063-3.242187 7.507813-5.058593 12.035156-5.035156 9.414063-.027344 17.035157-7.652344 17.066407-17.066406v-102.398438c.023437-4.527343-1.792969-8.871093-5.035157-12.035156-3.160156-3.238281-7.503906-5.058594-12.03125-5.03125-9.414062-.03125-17.039062-7.65625-17.066406-17.070312v-25.597656c0-18.851563 15.28125-34.132813 34.132813-34.132813zm0 0" fill="url(#a)"/><path d="m358.398438 264.535156h34.136718c4.710938 0 8.53125 3.820313 8.53125 8.53125v34.132813c0 4.714843-3.820312 8.535156-8.53125 8.535156h-34.136718c-4.710938 0-8.53125-3.820313-8.53125-8.535156v-34.132813c0-4.710937 3.820312-8.53125 8.53125-8.53125zm0 0" fill="#e3e7f2"/><path d="m358.398438 93.867188h34.136718c4.710938 0 8.53125 3.820312 8.53125 8.53125v34.136718c0 4.710938-3.820312 8.53125-8.53125 8.53125h-34.136718c-4.710938 0-8.53125-3.820312-8.53125-8.53125v-34.136718c0-4.710938 3.820312-8.53125 8.53125-8.53125zm0 0" fill="#e3e7f2"/><path d="m401.066406 204.800781c0 14.136719-11.460937 25.597657-25.601562 25.597657-14.136719 0-25.597656-11.460938-25.597656-25.597657 0-14.140625 11.460937-25.601562 25.597656-25.601562 14.140625 0 25.601562 11.460937 25.601562 25.601562zm0 0" fill="#e3e7f2"/><path d="m298.667969 336.632812v10.820313c.003906.640625-.25 1.261719-.707031 1.714844-.457032.453125-1.074219.707031-1.71875.699219h-208.484376c-.644531.007812-1.261718-.246094-1.71875-.699219-.457031-.453125-.710937-1.074219-.707031-1.714844v-10.820313c0-15.726562 8.515625-30.222656 22.257813-37.871093l47.90625-26.855469c4.574218-2.542969 7.414062-7.367188 7.414062-12.605469v-13.8125c-.007812-1.207031-.476562-2.367187-1.3125-3.234375-9.578125-11.132812-17.316406-23.722656-22.929687-37.292968l-1.988281-1.980469c-1.820313-1.804688-2.851563-4.261719-2.859376-6.824219v-21c.007813-2.566406 1.035157-5.023438 2.859376-6.828125l1.988281-1.980469v-38.671875c4.84375-33.808593 53.332031-33.808593 53.332031-33.808593s48.488281 0 53.332031 33.808593v38.648438l1.988281 1.980469c1.824219 1.804687 2.851563 4.261718 2.859376 6.824218v20.96875c-.007813 2.5625-1.039063 5.019532-2.859376 6.824219l-1.988281 1.980469c-5.613281 13.570312-13.351562 26.15625-22.929687 37.289062-.835938.871094-1.304688 2.027344-1.3125 3.234375v13.816407c0 5.238281 2.839844 10.0625 7.414062 12.605468l47.90625 26.851563c13.761719 7.664062 22.28125 22.183593 22.257813 37.933593zm0 0" fill="#e3e7f2"/><g fill="#fff"><path d="m221.867188 401.066406h-25.601563v51.199219h25.601563zm0 0"/><path d="m230.398438 503.464844h25.601562c-4.710938 0-8.535156-3.820313-8.535156-8.53125v-42.667969h-25.597656v42.667969c0 4.710937 3.820312 8.53125 8.53125 8.53125zm0 0"/><path d="m170.667969 375.464844v-25.597656h-25.601563v25.597656c0 14.140625 11.460938 25.601562 25.601563 25.601562h25.597656c-14.136719 0-25.597656-11.460937-25.597656-25.601562zm0 0"/><path d="m170.667969 34.132812c0-14.136718 11.460937-25.597656 25.597656-25.597656h-25.597656c-14.140625 0-25.601563 11.460938-25.601563 25.597656v25.601563h25.601563zm0 0"/><path d="m68.265625 349.867188c-18.851563 0-34.132813-15.28125-34.132813-34.132813v-221.867187c0-18.851563 15.28125-34.132813 34.132813-34.132813h-25.597656c-18.851563 0-34.132813 15.28125-34.132813 34.132813v221.867187c0 18.851563 15.28125 34.132813 34.132813 34.132813zm0 0"/><path d="m341.332031 17.066406h-170.664062v-17.066406h170.664062zm0 0"/></g><path d="m469.332031 51.199219h-93.867187v-17.066407c0-18.851562-15.28125-34.132812-34.132813-34.132812h-34.132812c-4.710938 0-8.53125 3.820312-8.53125 8.535156 0 4.710938 3.820312 8.53125 8.53125 8.53125h34.132812c9.425781 0 17.066407 7.640625 17.066407 17.066406v17.066407h-204.796876v-17.066407c0-9.425781 7.640626-17.066406 17.066407-17.066406h68.265625c4.710937 0 8.53125-3.820312 8.53125-8.53125 0-4.714844-3.820313-8.535156-8.53125-8.535156h-68.265625c-18.851563 0-34.132813 15.28125-34.132813 34.132812v17.066407h-93.867187c-23.554688.027343-42.6406252 19.113281-42.667969 42.667969v221.867187c.0273438 23.550781 19.113281 42.636719 42.667969 42.664063h93.867187v17.066406c0 18.851562 15.28125 34.136718 34.132813 34.136718h17.066406v34.132813c0 9.425781 7.640625 17.066406 17.066406 17.066406h8.53125v34.132813c0 9.425781 7.640625 17.066406 17.066407 17.066406h51.203124c9.425782 0 17.066407-7.640625 17.066407-17.066406v-34.132813h8.53125c9.425781 0 17.066406-7.640625 17.066406-17.066406v-34.132813h17.066406c18.851563 0 34.132813-15.285156 34.132813-34.136718v-17.066406h93.867187c23.554688-.027344 42.640625-19.113282 42.667969-42.664063v-221.867187c-.027344-23.554688-19.113281-42.640626-42.667969-42.667969zm-452.265625 92.296875c2.734375 1.011718 5.621094 1.542968 8.535156 1.570312 4.710938 0 8.53125 3.820313 8.53125 8.535156v102.398438c0 4.710938-3.820312 8.535156-8.53125 8.535156-2.914062.027344-5.800781.558594-8.535156 1.566406zm0 172.238281v-25.601563c0-4.710937 3.820313-8.53125 8.535156-8.53125 14.136719 0 25.597657-11.464843 25.597657-25.601562v-102.398438c0-14.140624-11.460938-25.601562-25.597657-25.601562-4.714843 0-8.535156-3.820312-8.535156-8.535156v-25.597656c0-14.140626 11.460938-25.601563 25.601563-25.601563h384v273.066406h-119.46875v-4.699219c-.011719-18.8125-10.191407-36.144531-26.613281-45.3125l-47.925782-26.871093c-1.863281-1.03125-3.027344-2.988281-3.035156-5.121094v-12.320313c9.480469-11.171874 17.222656-23.707031 22.960938-37.191406l.785156-.792968c3.453125-3.402344 5.390625-8.054688 5.375-12.902344v-20.964844c.011718-4.585938-1.722656-9.007812-4.84375-12.367188v-35.113281c0-.40625-.027344-.808593-.085938-1.210937-5.863281-40.664063-59.53125-41.132813-61.816406-41.132813s-55.953125.46875-61.78125 41.132813c-.058594.402344-.085938.804687-.085938 1.210937v35.113281c-3.125 3.359376-4.859374 7.777344-4.847656 12.367188v20.964844c-.011718 4.847656 1.921875 9.496094 5.367188 12.902344l.796875.792968c5.726562 13.480469 13.457031 26.015625 22.925781 37.191406v12.292969c0 2.152344-1.175781 4.132813-3.0625 5.164063l-47.878906 26.847656c-16.433594 9.164062-26.621094 26.503906-26.632813 45.320312v4.699219h-34.132812c-14.140625 0-25.601563-11.460937-25.601563-25.597656zm76.800782 20.898437c.015624-12.644531 6.871093-24.285156 17.917968-30.429687l47.875-26.839844c7.28125-4.050781 11.796875-11.726562 11.800782-20.0625v-13.8125c-.003907-3.394531-1.308594-6.652343-3.652344-9.105469-8.832032-10.359374-15.988282-22.035156-21.207032-34.605468-.433593-1.070313-1.074218-2.042969-1.894531-2.855469l-1.996093-1.988281c-.222657-.210938-.34375-.507813-.339844-.8125v-20.964844c0-.304688.125-.59375.339844-.804688l1.988281-1.976562c1.628906-1.597656 2.546875-3.773438 2.558593-6.050781v-37.992188c4.269532-25.488281 44.375-25.933593 44.800782-25.933593.429687 0 40.550781.300781 44.800781 25.933593v37.992188c.011719 2.277343.933594 4.453125 2.558594 6.050781l1.988281 1.96875c.21875.214844.339844.507812.34375.8125v20.964844c.003906.308594-.125.601562-.351562.8125l-1.988282 1.988281c-.816406.8125-1.460937 1.785156-1.894531 2.855469-5.25 12.574218-12.441406 24.25-21.304687 34.597656-2.34375 2.449219-3.652344 5.710938-3.652344 9.101562v13.816407c-.003906 8.324219 4.503906 15.996093 11.773437 20.046875l47.882813 26.878906c11.046875 6.136719 17.902344 17.777344 17.917968 30.414062v4.699219h-196.265624zm187.734374 158.300782h-51.203124v-34.132813h51.203124zm25.597657-51.199219h-102.398438v-34.132813h102.398438zm51.199219-68.269531c0 9.425781-7.640626 17.070312-17.066407 17.070312h-170.664062c-9.425781 0-17.066407-7.644531-17.066407-17.070312v-17.066406h204.796876zm136.535156-59.730469c0 14.136719-11.460938 25.597656-25.601563 25.597656h-25.597656v-273.066406h25.597656c14.140625 0 25.601563 11.460937 25.601563 25.601563zm0 0" fill="#428dff"/><path d="m469.332031 179.199219c-4.710937 0-8.53125 3.820312-8.53125 8.535156v34.132813c0 4.710937 3.820313 8.53125 8.53125 8.53125 4.714844 0 8.535157-3.820313 8.535157-8.53125v-34.132813c0-4.714844-3.820313-8.535156-8.535157-8.535156zm0 0" fill="#428dff"/><path d="m279.125 14.59375 1.023438-1.28125c.324218-.476562.582031-.992188.769531-1.535156.246093-.484375.417969-1.003906.511719-1.539063.09375-.5625.152343-1.132812.171874-1.703125-.035156-2.261718-.917968-4.425781-2.476562-6.058594-.816406-.773437-1.769531-1.382812-2.816406-1.792968-3.183594-1.289063-6.824219-.5859378-9.300782 1.792968-.769531.8125-1.378906 1.769532-1.792968 2.8125-.4375 1.027344-.667969 2.128907-.679688 3.246094.03125 2.257813.914063 4.421875 2.472656 6.058594 3.363282 3.296875 8.753907 3.296875 12.117188 0zm0 0" fill="#428dff"/><path d="m358.398438 324.265625h34.136718c9.425782 0 17.066406-7.640625 17.066406-17.066406v-34.132813c0-9.425781-7.640624-17.066406-17.066406-17.066406h-34.136718c-9.425782 0-17.066407 7.640625-17.066407 17.066406v34.132813c0 9.425781 7.640625 17.066406 17.066407 17.066406zm0-51.199219h34.136718v34.132813h-34.136718zm0 0" fill="#428dff"/><path d="m358.398438 153.601562h34.136718c9.425782 0 17.066406-7.640624 17.066406-17.066406v-34.136718c0-9.425782-7.640624-17.066407-17.066406-17.066407h-34.136718c-9.425782 0-17.066407 7.640625-17.066407 17.066407v34.136718c0 9.425782 7.640625 17.066406 17.066407 17.066406zm0-51.203124h34.136718v34.136718h-34.136718zm0 0" fill="#428dff"/><path d="m375.464844 238.933594c18.851562 0 34.136718-15.28125 34.136718-34.132813 0-18.851562-15.285156-34.132812-34.136718-34.132812-18.847656 0-34.132813 15.28125-34.132813 34.132812 0 18.851563 15.285157 34.132813 34.132813 34.132813zm0-51.199219c9.425781 0 17.070312 7.640625 17.070312 17.066406s-7.644531 17.066407-17.070312 17.066407c-9.425782 0-17.066406-7.640626-17.066406-17.066407s7.640624-17.066406 17.066406-17.066406zm0 0" fill="#428dff"/></svg>