<svg height="512" viewBox="0 0 60 60" width="512" xmlns="http://www.w3.org/2000/svg"><g id="003---Investing-" fill="none"><g id="Layer_9"><path id="Shape" d="m53 21.51v-13.51c0-.55228475-.4477153-1-1-1h-4c-.5522847 0-1 .44771525-1 1v6z" fill="#cad9fc"/><path id="Shape" d="m54 30.44c0 10.6.07 9.89 0 9.89-1.9476268-1.1310573-4.224858-1.5582589-6.45-1.21-4.9049568.7188102-8.542902 4.9226581-8.55 9.88v-5.17c.0004224-.5330446-.2119606-1.0442036-.59-1.42l-1.63-1.63c-.2311277-.2400794-.2311277-.6199206 0-.86l2.15-2.4c.0836126-.0907883.1054025-.2225272.0554766-.3354031-.0499259-.112876-.1620547-.1853815-.2854766-.1845969h-4.31c-.2368523.0050257-.4551935-.1275386-.56-.34l-3.28-6.55c-.33773-.6796577-1.031056-1.1095973-1.79-1.11h-5.52l14.34-18.79c.1003318-.1303556.2555037-.2067354.42-.2067354s.3196682.0763798.42.2067354c16.39 21.4 15.33 20.09 15.58 20.23z" fill="#cad9fc"/><path id="Shape" d="m51 39.2c-5.1058117-1.0521649-10.1633551 1.994548-11.62 7l-.38.3v-2.67c.0004224-.5330446-.2119606-1.0442036-.59-1.42l-1.63-1.63c-.2311277-.2400794-.2311277-.6199206 0-.86l2.15-2.4c.0836126-.0907883.1054025-.2225272.0554766-.3354031-.0499259-.112876-.1620547-.1853815-.2854766-.1845969h-4.31c-.2368523.0050257-.4551935-.1275386-.56-.34l-3.28-6.55c-.33773-.6796577-1.031056-1.1095973-1.79-1.11h-5.52l14.34-18.79c.1003318-.1303556.2555037-.2067354.42-.2067354s.3196682.0763798.42.2067354l12.58 16.43c-.07 5.86 0-3.41 0 12.56z" fill="#e8edfc"/><path id="Shape" d="m19 10c.0003796 4.772981-3.7253559 8.7161893-8.4906882 8.9862933-4.7653323.2701039-8.91278354-3.226844-9.45174853-7.9692975-.53896498-4.74245347 2.71801909-9.08089232 7.42243673-9.8869958 2.6145052-.44799631 5.2934896.28019114 7.3214503 1.99007816 2.0279607 1.70988701 3.1983387 4.22731215 3.1985497 6.87992184z" fill="#cad9fc"/><path id="Shape" d="m16 10c-.0003487 4.3837914-3.1591813 8.1296264-7.48 8.87-4.31916041-.7421807-7.47582809-4.4875373-7.47582809-8.87 0-4.38246265 3.15666768-8.12781928 7.47582809-8.87 4.3208187.74037365 7.4796513 4.48620861 7.48 8.87z" fill="#e8edfc"/><path id="Shape" d="m4 53h6v4c0 1.1045695-.8954305 2-2 2h-2c-1.1045695 0-2-.8954305-2-2z" fill="#7facfa"/><path id="Shape" d="m30 53h6v4c0 1.1045695-.8954305 2-2 2h-2c-1.1045695 0-2-.8954305-2-2z" fill="#7facfa"/><path id="Shape" d="m39 43.83v7.17c0 1.1045695-.8954305 2-2 2h-34c-1.1045695 0-2-.8954305-2-2v-7.17c-.00042238-.5330446.2119606-1.0442036.59-1.42l1.63-1.63c.2311277-.2400794.2311277-.6199206 0-.86l-2.15-2.4c-.08665531-.0934076-.10733231-.2303248-.05212489-.3451562s.17505488-.1841888.30212489-.1748438h4.29c.23685227.0050257.45519347-.1275386.56-.34l3.28-6.55c.33773001-.6796577 1.031056-1.1095973 1.79-1.11h17.52c.758944.0004027 1.45227.4303423 1.79 1.11l3.28 6.55c.1048065.2124614.3231477.3450257.56.34h4.29c.1234219-.0007846.2355507.0717209.2854766.1845969.0499259.1128759.028136.2446148-.0554766.3354031l-2.15 2.4c-.2311277.2400794-.2311277.6199206 0 .86l1.63 1.63c.3853886.372477.6051498.8840523.61 1.42z" fill="#cad9fc"/><path id="Shape" d="m36 43.83v7.17c0 1.1045695-.8954305 2-2 2h-31c-1.1045695 0-2-.8954305-2-2v-7.17c-.00042238-.5330446.2119606-1.0442036.59-1.42l1.63-1.63c.2311277-.2400794.2311277-.6199206 0-.86l-2.15-2.4c-.08665531-.0934076-.10733231-.2303248-.05212489-.3451562s.17505488-.1841888.30212489-.1748438h4.29c.23685227.0050257.45519347-.1275386.56-.34l3.28-6.55c.33773001-.6796577 1.031056-1.1095973 1.79-1.11h14.52c.758944.0004027 1.45227.4303423 1.79 1.11l3.28 6.55c.1048065.2124614.3231477.3450257.56.34h4.29c.1234219-.0007846.2355507.0717209.2854766.1845969.0499259.1128759.028136.2446148-.0554766.3354031l-2.15 2.4c-.2311277.2400794-.2311277.6199206 0 .86l1.63 1.63c.3853886.372477.6051498.8840523.61 1.42z" fill="#e8edfc"/><path id="Shape" d="m58.58 27.94c-3 2.12-3.5 2.51-3.61 2.54-.4200283.2141125-.9325495.1057747-1.23-.26l-15.32-20c-.1003318-.1303556-.2555037-.2067354-.42-.2067354s-.3196682.0763798-.42.2067354c-1.58 2.06.9-1.22-14.34 18.78h-4.32l-1.5-1.06c-.4868792-.3989439-.5667543-1.1133828-.18-1.61 23.58-30.25 14.1-17.61 20-25 .1899882-.22216639.4676758-.35007693.76-.35007693s.5700118.12791054.76.35007693c4.12 5.12.66.14 20 25 .3867543.4966172.3068792 1.2110561-.18 1.61z" fill="#e8edfc"/><path id="Shape" d="m58.76 26.33c-19.64-24.58-15.85-19.86-20-25-.1899882-.22216639-.4676758-.35007693-.76-.35007693s-.5700118.12791054-.76.35007693c-.28.35-.52.65-.74.91 3 3.68 1 1.13 19.26 24 .3813338.4981354.3019277 1.2083783-.18 1.61l-2.32 1.65.48.63c.2974505.3657747.8099717.4741125 1.23.26.11 0 .61-.42 3.61-2.54.4290603-.3917051.5057036-1.038915.18-1.52z" fill="#cad9fc"/><path id="Shape" d="m59 49c-.0028718 2.9087962-1.2721467 5.6721835-3.4768702 7.5696285-2.2047236 1.897445-5.1263659 2.740875-8.0031298 2.3103715-4.8674023-.7609202-8.4554612-4.9534794-8.4554612-9.88s3.5880589-9.1190798 8.4554612-9.88c2.8767639-.4305035 5.7984062.4129265 8.0031298 2.3103715 2.2047235 1.897445 3.4739984 4.6608323 3.4768702 7.5696285z" fill="#cad9fc"/><path id="Shape" d="m56 49c-.0018776 4.9344879-3.602848 9.1299581-8.48 9.88-4.8674023-.7609202-8.4554612-4.9534794-8.4554612-9.88s3.5880589-9.1190798 8.4554612-9.88c4.877152.7500419 8.4781224 4.9455121 8.48 9.88z" fill="#e8edfc"/><path id="Shape" d="m42 26c.0040734 2.0125606-1.4877913 3.7147474-3.4835086 3.9746114-1.9957172.259864-3.8737324-1.003528-4.385171-2.9500242-.5114387-1.9464961.5029839-3.9698713 2.3686796-4.7245872 1.231661-.4982346 2.630331-.3523962 3.732715.3892075 1.1023839.7416037 1.7645959 1.982177 1.767285 3.3107925z" fill="#cad9fc"/><g fill="#e8edfc"><path id="Shape" d="m36.5 29.7c-1.5004686-.6163554-2.4801316-2.0778718-2.4801316-3.7s.979663-3.0836446 2.4801316-3.7c1.5004686.6163554 2.4801316 2.0778718 2.4801316 3.7s-.979663 3.0836446-2.4801316 3.7z"/><circle id="Oval" cx="7" cy="47" r="2"/><circle id="Oval" cx="33" cy="47" r="2"/><path id="Shape" d="m24.84 49h-9.68c-.3415089.0057625-.6592699-.1741744-.83-.47l-1.23-2.29c-.1369089-.2760923-.1156229-.6043363.0557973-.860434.1714203-.2560978.4667682-.4008971.7742027-.379566h12.14c.3074345-.0213311.6027824.1234682.7742027.379566.1714202.2560977.1927062.5843417.0557973.860434l-1.23 2.29c-.1707301.2958256-.4884911.4757625-.83.47z"/><path id="Shape" d="m29.64 38.27-2.5-5c-.0859187-.170066-.2594726-.2780551-.45-.28h-13.38c-.1905274.0019449-.3640813.109934-.45.28l-2.5 5c-.0748285.1564098-.0650651.340123.0259198.4877207.0909848.1475976.2507262.2388587.4240802.2422793h18.38c.173354-.0034206.3330954-.0946817.4240802-.2422793.0909849-.1475977.1007483-.3313109.0259198-.4877207z"/></g></g><g id="Layer_9_copy" fill="#fff" transform="translate(1 1)"><path id="Shape" d="m8.45 29.11-3.28 6.55c-.10480653.2124614-.32314773.3450257-.56.34h3c.23685227.0050257.45519347-.1275386.56-.34l3.28-6.55c.33773-.6796577 1.031056-1.1095973 1.79-1.11h-3c-.75894397.0004027-1.45226999.4303423-1.79 1.11z"/><path id="Shape" d="m3.65 16.22c1.94674763 1.4704561 4.41754793 2.0646075 6.82 1.64-1.38537786-.2359752-2.69475118-.7981145-3.82-1.64-2.73441778-2.0351288-4.08446991-5.4404009-3.48738914-8.79633359.59708078-3.35593271 3.03882266-6.08657646 6.30738914-7.05366641.32895958-.09723598.6627413-.1773436 1-.24-4.08778184-.65532545-8.09533552 1.56252408-9.71098617 5.37422774s-.42259136 8.23391496 2.89098617 10.71577226z"/><path id="Shape" d="m2 52h1v4c0 1.1045695.8954305 2 2 2h2c.16889073-.0029443.33679396-.0264508.5-.07-.88070147-.227391-1.4970464-1.0204215-1.5-1.93v-4h-1c-1.1045695 0-2-.8954305-2-2v-7.17c-.00042238-.5330446.2119606-1.0442036.59-1.42l1.63-1.63c.2311277-.2400794.2311277-.6199206 0-.86l-2.15-2.4c-.08665531-.0934076-.10733231-.2303248-.05212489-.3451562s.17505488-.1841888.30212489-.1748438h-3c-.1234219-.0007846-.23555073.0717209-.28547664.1845969-.04992591.1128759-.02813593.2446148.05547664.3354031l2.15 2.4c.2311277.2400794.2311277.6199206 0 .86l-1.65 1.63c-.3780394.3757964-.59042238.8869554-.59 1.42v7.17c0 1.1045695.8954305 2 2 2z"/></g><g id="Layer_11" transform="translate(-1)"><path id="Shape" d="m4.79 5-1.55-1.3c1.90289417-2.33212434 4.75006588-3.68966755 7.76-3.7v2c-2.41424724.02198673-4.69216886 1.12243195-6.21 3z" fill="#fff"/><g fill="#428dff"><path id="Shape" d="m50.12 48c-1.8-.23-2.12-.42-2.12-1.26 0-1.44 3.3-1.71 4.13-.39.1786328.3126074.5104704.5061691.8705127.5077722.3600423.0016032.6935905-.1889957.875-.5.1814095-.3110042.1831201-.6951648.0044873-1.0077722-.6655209-.9700702-1.7131494-1.6102876-2.88-1.76v-.59c0-.5522847-.4477153-1-1-1s-1 .4477153-1 1v.61c-1.6368447.1649937-2.9097833 1.4973362-3 3.14 0 2.76 2.43 3.06 3.88 3.24 1.8.23 2.12.42 2.12 1.26 0 1.09-1.25 1.25-2 1.25-.7955202.0568423-1.59057-.1167493-2.29-.5-.3921222-.3921222-1.0278778-.3921222-1.42 0s-.3921222 1.0278778 0 1.42c.7696372.620779 1.7216037.9720582 2.71 1v.58c0 .5522847.4477153 1 1 1s1-.4477153 1-1v-.58c1.6772521-.1049871 2.9875276-1.4895116 3-3.17 0-2.76-2.43-3.06-3.88-3.25z"/><path id="Shape" d="m56 39.79v-8.27c.54-.14.34-.06 4.22-2.81.8931676-.7527749 1.0342863-2.0757634.32-3l-5.54-6.91v-10.8c0-1.1045695-.8954305-2-2-2h-4c-1.1045695 0-2 .8954305-2 2v.81l-6.46-8.07c-.3799598-.45854063-.9444927-.72391223-1.54-.72391223s-1.1600402.2653716-1.54.72391223l-6.61 8.26h-9.85c-.5154198-5.12901293-4.8452193-9.02583248-10-9-.5522847 0-1 .44771525-1 1s.4477153 1 1 1c3.7371095-.01637781 6.9876402 2.55677352 7.8294558 6.19787259.8418156 3.64109911-.9494042 7.37989411-4.3144575 9.00552381-3.3650534 1.6256296-7.40724714.7049087-9.73631107-2.2177129s-2.32436724-7.06834655.01131277-9.9856835c.33520633-.4109402.29132668-1.01209141-.1-1.37-.20350652-.18520367-.47433514-.27836728-.74871088-.25755257-.27437575.02081471-.52805066.15376824-.70128912.36755257-2.32126247 2.8539399-2.88812775 6.7519245-1.47589282 10.1488091 1.41223492 3.3968846 4.57550097 5.7440888 8.23589282 6.1111909v9c-.42.48-.3.36-3.62 7h-4.06c-.52360046-.0119529-1.00400078.2891086-1.22154384.7655279-.21754305.4764193-.13041582 1.0366258.22154384 1.4244721l1.91 2.13-1.35 1.39c-.56276995.5620694-.87929979 1.3246186-.88 2.12v7.17c0 1.6568542 1.34314575 3 3 3v3c0 1.6568542 1.34314575 3 3 3h2c1.6568542 0 3-1.3431458 3-3v-3h18v3c0 1.6568542 1.3431458 3 3 3h2c1.6568542 0 3-1.3431458 3-3v-3c.6868596-.0000994 1.3520059-.2406842 1.88-.68 1.8477032 4.3384129 6.2550771 7.0165421 10.9569105 6.657938 4.7018334-.3586042 8.6520749-3.6741605 9.8204607-8.2426075 1.1683859-4.5684471-.7050233-9.373409-4.6573712-11.9453305zm-7-31.79h4v8.27l-4-5zm-8.16 34.91c-.28-.87-.58-1.07-2.1-2.59l1.86-2.07c.3837516-.3724719.5025642-.9408127.3001607-1.4358213-.2024035-.4950085-.6853795-.8172847-1.2201607-.8141787h-4.06l-3.17-6.34c-.5087974-1.0191576-1.5508986-1.6622386-2.69-1.66h-3.5l12.74-16.7c19.73 25.77 13.83 18.16 15 19.56v7.87c-4.8237737-1.8762738-10.303041-.1358986-13.16 4.18zm-1.84-40.91c21.25 26.55 20.07 25 20 25.12l-3.46 2.48c-.1-.06.12.18-15.33-20-.3001818-.36109655-.7454259-.56996287-1.215-.56996287s-.9148182.20886632-1.215.56996287l-14.04 18.4h-3.5l-1.19-.84c-.18-.16-1.29 1.39 19.95-25.16zm-18 9h8.3l-11.84 14.72c-.5057781.6544189-.5913205 1.5409488-.22 2.28-5.71 0-4.94 0-5.24 0v-8c4.7683924-.4571611 8.5428389-4.2316076 9-9zm-11 46c0 .5522847-.44771525 1-1 1h-2c-.55228475 0-1-.4477153-1-1v-3h4zm26 0c0 .5522847-.4477153 1-1 1h-2c-.5522847 0-1-.4477153-1-1v-3h4zm3-6c0 .5522847-.4477153 1-1 1h-34c-.55228475 0-1-.4477153-1-1v-7.17c0-.53.16-.58 1.93-2.34.60810096-.6084137.63874499-1.584645.07-2.23l-1.14-1.26h2.75c.61858313.0033533 1.18507922-.3458566 1.46-.9l3.27-6.55c.1710655-.3395038.5198431-.5526457.9-.55h17.52c.3801569-.0026457.7289345.2104962.9.55l3.27 6.55c.2749208.5541434.8414169.9033533 1.46.9h2.75l-1.14 1.25c-.5727429.646057-.546507 1.6255301.06 2.24 1.77 1.77 1.93 1.8 1.93 2.34zm11 7c-4.9705627 0-9-4.0294373-9-9s4.0294373-9 9-9 9 4.0294373 9 9-4.0294373 9-9 9z"/><path id="Shape" d="m8 44c-1.65685425 0-3 1.3431458-3 3s1.34314575 3 3 3 3-1.3431458 3-3-1.34314575-3-3-3zm0 4c-.55228475 0-1-.4477153-1-1s.44771525-1 1-1 1 .4477153 1 1-.44771525 1-1 1z"/><path id="Shape" d="m34 44c-1.6568542 0-3 1.3431458-3 3s1.3431458 3 3 3 3-1.3431458 3-3-1.3431458-3-3-3zm0 4c-.5522847 0-1-.4477153-1-1s.4477153-1 1-1 1 .4477153 1 1-.4477153 1-1 1z"/><path id="Shape" d="m27.07 44h-12.14c-.6610425-.0217924-1.2839329.3090922-1.6359542.8690325-.3520213.5599402-.3802143 1.2646971-.0740458 1.8509675l1.23 2.28c.345752.6243304 1.006374 1.0084129 1.72 1h9.66c.711821.0113987 1.3709079-.3740322 1.71-1l1.24-2.28c.3061685-.5862704.2779755-1.2910273-.0740458-1.8509675-.3520213-.5599403-.9749117-.8908249-1.6359542-.8690325zm-1.24 4c0 1.29 0 1.37 0 0zm0 0h-9.6l-1.13-2h11.82z"/><path id="Shape" d="m31.53 37.83-2.5-5c-.251782-.5096168-.7715803-.8315814-1.34-.83h-13.38c-.5684197-.0015814-1.088218.3203832-1.34.83l-2.5 5c-.2319718.4646524-.2070898 1.0162363.0657756 1.4581155.2728655.4418792.7548861.7111747 1.2742244.7118845h18.38c.5193383-.0007098 1.0013589-.2700053 1.2742244-.7118845.2728654-.4418792.2977474-.9934631.0657756-1.4581155zm-18.91.17 2-4h12.76l2 4z"/><path id="Shape" d="m39 21c-2.0223112 0-3.8454927 1.2182109-4.6193977 3.0865828-.773905 1.868372-.3461262 4.0189611 1.0838638 5.4489511s3.5805791 1.8577688 5.4489511 1.0838638c1.8683719-.773905 3.0865828-2.5970865 3.0865828-4.6193977 0-2.7614237-2.2385763-5-5-5zm0 8c-1.6568542 0-3-1.3431458-3-3s1.3431458-3 3-3 3 1.3431458 3 3-1.3431458 3-3 3z"/><path id="Shape" d="m7.13 2.87c-.55228475 0-1-.44771525-1-1s.44771525-1 1-1 1 .44771525 1 1-.44771525 1-1 1z"/><path id="Shape" d="m10.45 10.83c3.25 2.17 3.14 2.17 3.55 2.17.4385565-.0033853.8237305-.292132.9499631-.7121422.1262326-.4200103-.0359373-.8732592-.3999631-1.1178578l-2.55-1.71v-1.46c0-.55228475-.4477153-1-1-1s-1 .44771525-1 1v2c.0017306.3345191.1706148.6460165.45.83z"/><circle id="Oval" cx="6" cy="10" r="1"/><circle id="Oval" cx="11" cy="15" r="1"/></g></g></g></svg>