<?xml version="1.0" encoding="iso-8859-1"?>
<!-- Generator: Adobe Illustrator 19.0.0, SVG Export Plug-In . SVG Version: 6.00 Build 0)  -->
<svg version="1.1" id="Capa_1" xmlns="http://www.w3.org/2000/svg" xmlns:xlink="http://www.w3.org/1999/xlink" x="0px" y="0px"
	 viewBox="0 0 512 512" style="enable-background:new 0 0 512 512;" xml:space="preserve">
<path style="fill:#D4E1F4;" d="M93.867,25.6v460.8c-0.594,8.767,5.979,16.378,14.739,17.067h294.788
	c8.76-0.688,15.334-8.3,14.739-17.067V25.6c0.594-8.767-5.979-16.378-14.739-17.067H108.606C99.846,9.222,93.272,16.833,93.867,25.6
	z"/>
<path style="fill:#FFFFFF;" d="M93.867,486.4V25.6c-0.594-8.767,5.979-16.379,14.74-17.067H85.333
	c-9.426,0-17.067,7.641-17.067,17.067v460.8c0,9.426,7.641,17.067,17.067,17.067h23.273C99.846,502.779,93.272,495.167,93.867,486.4
	L93.867,486.4z"/>
<path style="fill:#7FACFA;" d="M426.667,8.533h-23.273c8.76,0.688,15.334,8.3,14.74,17.067v460.8
	c0.594,8.767-5.979,16.379-14.74,17.067h23.273c9.426,0,17.067-7.641,17.067-17.067V25.6
	C443.733,16.174,436.092,8.533,426.667,8.533z"/>
<g>
	<path style="fill:#A4C2F7;" d="M392.533,179.2v-40.871c0-23.564-19.103-42.667-42.667-42.667s-42.666,19.103-42.666,42.667V179.2
		H392.533z"/>
	<circle style="fill:#A4C2F7;" cx="349.87" cy="70.06" r="25.6"/>
</g>
<g>
	<path style="fill:#428DFF;" d="M349.867,104.192c-12.211,0.027-23.507-6.472-29.62-17.042c-6.114-10.571-6.114-23.602,0-34.173
		s17.409-17.07,29.62-17.042h0.021c18.819,0.047,34.049,15.32,34.043,34.139S368.686,104.156,349.867,104.192L349.867,104.192z
		 M349.884,53.001h-0.012c-9.418,0.003-17.051,7.64-17.049,17.059c0.002,9.418,7.637,17.052,17.055,17.052
		s17.054-7.634,17.055-17.052C366.935,60.641,359.302,53.004,349.884,53.001z"/>
	<path style="fill:#428DFF;" d="M392.533,187.733H307.2c-2.263,0.001-4.434-0.898-6.035-2.499c-1.6-1.6-2.499-3.771-2.499-6.035
		v-40.867c0-28.277,22.923-51.2,51.2-51.2s51.2,22.923,51.2,51.2V179.2c0.001,2.263-0.898,4.434-2.499,6.035
		C396.968,186.835,394.797,187.734,392.533,187.733z M315.733,170.667H384v-32.333c0-18.851-15.282-34.133-34.133-34.133
		c-18.851,0-34.133,15.282-34.133,34.133v32.333L315.733,170.667L315.733,170.667z"/>
	<path style="fill:#428DFF;" d="M426.667,512H85.333c-14.132-0.015-25.585-11.468-25.6-25.6V25.6
		C59.749,11.468,71.201,0.015,85.333,0h341.333c14.132,0.015,25.585,11.468,25.6,25.6v34.133c0,4.713-3.821,8.533-8.533,8.533
		c-4.713,0-8.533-3.821-8.533-8.533V25.6c-0.005-4.711-3.822-8.529-8.533-8.533H85.333c-4.711,0.005-8.529,3.822-8.533,8.533v460.8
		c0.005,4.711,3.822,8.529,8.533,8.533h341.333c4.711-0.005,8.529-3.822,8.533-8.533V128c0-4.713,3.821-8.533,8.533-8.533
		c4.713,0,8.533,3.821,8.533,8.533v358.4C452.251,500.532,440.799,511.985,426.667,512L426.667,512z"/>
	<circle style="fill:#428DFF;" cx="443.73" cy="93.87" r="8.533"/>
	<path style="fill:#428DFF;" d="M392.533,238.933H119.467c-4.713,0-8.533-3.821-8.533-8.533s3.821-8.533,8.533-8.533h273.067
		c4.713,0,8.533,3.82,8.533,8.533S397.246,238.933,392.533,238.933z"/>
	<path style="fill:#428DFF;" d="M392.533,358.4H119.467c-4.713,0-8.533-3.821-8.533-8.533c0-4.713,3.821-8.533,8.533-8.533h273.067
		c4.713,0,8.533,3.821,8.533,8.533C401.067,354.579,397.246,358.4,392.533,358.4z"/>
	<path style="fill:#428DFF;" d="M307.201,281.6h-42.667c-4.713,0-8.533-3.82-8.533-8.533s3.821-8.533,8.533-8.533h42.667
		c4.713,0,8.533,3.82,8.533,8.533S311.913,281.6,307.201,281.6z"/>
	<path style="fill:#428DFF;" d="M349.867,281.6h-8.533c-4.713,0-8.533-3.82-8.533-8.533s3.82-8.533,8.533-8.533h8.533
		c4.713,0,8.533,3.82,8.533,8.533S354.579,281.6,349.867,281.6z"/>
	<path style="fill:#428DFF;" d="M384,281.6c-1.116-0.013-2.219-0.245-3.246-0.683c-2.141-0.78-3.828-2.467-4.608-4.608
		c-0.906-2.066-0.906-4.417,0-6.483c0.413-1.045,1.022-2.002,1.795-2.817c3.421-3.158,8.695-3.158,12.117,0
		c0.753,0.83,1.359,1.783,1.792,2.817c0.911,2.065,0.911,4.418,0,6.483c-0.435,1.033-1.041,1.985-1.792,2.817
		C388.452,280.729,386.27,281.621,384,281.6L384,281.6z"/>
	<path style="fill:#428DFF;" d="M264.533,435.2c-1.116-0.013-2.219-0.245-3.246-0.683c-2.141-0.78-3.828-2.467-4.608-4.608
		c-0.436-1.026-0.667-2.127-0.68-3.242c0.031-2.259,0.915-4.423,2.475-6.059c2.451-2.426,6.123-3.133,9.3-1.792
		c1.034,0.433,1.987,1.039,2.817,1.792c1.558,1.636,2.442,3.8,2.475,6.059c-0.014,1.115-0.246,2.216-0.683,3.242
		c-0.435,1.033-1.041,1.985-1.792,2.817C268.986,434.329,266.803,435.221,264.533,435.2L264.533,435.2z"/>
	<path style="fill:#428DFF;" d="M290.133,315.733h-25.6c-4.713,0-8.533-3.82-8.533-8.533s3.821-8.533,8.533-8.533h25.6
		c4.713,0,8.533,3.82,8.533,8.533S294.846,315.733,290.133,315.733z"/>
	<path style="fill:#428DFF;" d="M384,315.733h-59.733c-4.713,0-8.533-3.82-8.533-8.533s3.821-8.533,8.533-8.533H384
		c4.713,0,8.533,3.82,8.533,8.533S388.714,315.733,384,315.733z"/>
	<path style="fill:#428DFF;" d="M162.133,281.6h-42.667c-4.713,0-8.533-3.82-8.533-8.533s3.821-8.533,8.533-8.533h42.667
		c4.713,0,8.533,3.82,8.533,8.533S166.846,281.6,162.133,281.6z"/>
	<path style="fill:#428DFF;" d="M204.8,281.6h-8.533c-4.713,0-8.533-3.82-8.533-8.533s3.821-8.533,8.533-8.533h8.533
		c4.713,0,8.533,3.82,8.533,8.533S209.513,281.6,204.8,281.6z"/>
	<path style="fill:#428DFF;" d="M290.133,401.067h-25.6c-4.713,0-8.533-3.82-8.533-8.533s3.821-8.533,8.533-8.533h25.6
		c4.713,0,8.533,3.82,8.533,8.533S294.846,401.067,290.133,401.067z"/>
	<path style="fill:#428DFF;" d="M384,401.067h-59.733c-4.713,0-8.533-3.82-8.533-8.533s3.821-8.533,8.533-8.533H384
		c4.713,0,8.533,3.82,8.533,8.533S388.714,401.067,384,401.067z"/>
	<path style="fill:#428DFF;" d="M324.267,435.2h-25.6c-4.713,0-8.533-3.82-8.533-8.533s3.82-8.533,8.533-8.533h25.6
		c4.713,0,8.533,3.82,8.533,8.533S328.98,435.2,324.267,435.2z"/>
	<path style="fill:#428DFF;" d="M384,435.2h-25.6c-4.713,0-8.533-3.82-8.533-8.533s3.82-8.533,8.533-8.533H384
		c4.713,0,8.533,3.82,8.533,8.533S388.714,435.2,384,435.2z"/>
	<path style="fill:#428DFF;" d="M162.133,401.067h-42.667c-4.713,0-8.533-3.82-8.533-8.533s3.821-8.533,8.533-8.533h42.667
		c4.713,0,8.533,3.82,8.533,8.533S166.846,401.067,162.133,401.067z"/>
	<path style="fill:#428DFF;" d="M204.8,401.067h-8.533c-4.713,0-8.533-3.82-8.533-8.533s3.821-8.533,8.533-8.533h8.533
		c4.713,0,8.533,3.82,8.533,8.533S209.513,401.067,204.8,401.067z"/>
	<path style="fill:#428DFF;" d="M179.2,85.333h-59.733c-4.713,0-8.533-3.82-8.533-8.533s3.821-8.533,8.533-8.533H179.2
		c4.713,0,8.533,3.821,8.533,8.533C187.733,81.513,183.913,85.333,179.2,85.333z"/>
	<path style="fill:#428DFF;" d="M179.2,153.6h-59.733c-4.713,0-8.533-3.821-8.533-8.533c0-4.713,3.821-8.533,8.533-8.533H179.2
		c4.713,0,8.533,3.821,8.533,8.533S183.913,153.6,179.2,153.6z"/>
	<path style="fill:#428DFF;" d="M221.867,85.333h-8.533c-4.713,0-8.533-3.82-8.533-8.533s3.82-8.533,8.533-8.533h8.533
		c4.713,0,8.533,3.821,8.533,8.533C230.4,81.513,226.579,85.333,221.867,85.333z"/>
	<path style="fill:#428DFF;" d="M256,85.333c-1.116-0.013-2.219-0.245-3.246-0.683c-1.033-0.432-1.984-1.038-2.813-1.791
		c-1.606-1.605-2.498-3.789-2.475-6.059c-0.02-3.467,2.059-6.601,5.261-7.931c3.202-1.329,6.89-0.59,9.331,1.872
		c0.753,0.83,1.359,1.783,1.792,2.817c1.124,2.624,0.847,5.638-0.737,8.014S258.855,85.362,256,85.333L256,85.333z"/>
	<path style="fill:#428DFF;" d="M256,119.467h-42.667c-4.713,0-8.533-3.821-8.533-8.533c0-4.713,3.82-8.533,8.533-8.533H256
		c4.713,0,8.533,3.821,8.533,8.533S260.714,119.467,256,119.467z"/>
	<path style="fill:#428DFF;" d="M221.867,153.6h-8.533c-4.713,0-8.533-3.821-8.533-8.533c0-4.713,3.82-8.533,8.533-8.533h8.533
		c4.713,0,8.533,3.821,8.533,8.533C230.4,149.779,226.579,153.6,221.867,153.6z"/>
	<path style="fill:#428DFF;" d="M256,153.6c-2.288,0.028-4.484-0.899-6.059-2.558c-1.617-1.563-2.513-3.727-2.475-5.975
		c0.012-1.115,0.243-2.216,0.679-3.242c0.433-1.035,1.04-1.988,1.796-2.817c3.421-3.158,8.695-3.158,12.117,0
		c0.753,0.83,1.359,1.783,1.792,2.817c0.438,1.026,0.67,2.127,0.683,3.242C264.501,149.766,260.699,153.568,256,153.6z"/>
	<path style="fill:#428DFF;" d="M256,187.733h-42.667c-4.713,0-8.533-3.82-8.533-8.533s3.82-8.533,8.533-8.533H256
		c4.713,0,8.533,3.821,8.533,8.533S260.714,187.733,256,187.733z"/>
</g>
<g>
</g>
<g>
</g>
<g>
</g>
<g>
</g>
<g>
</g>
<g>
</g>
<g>
</g>
<g>
</g>
<g>
</g>
<g>
</g>
<g>
</g>
<g>
</g>
<g>
</g>
<g>
</g>
<g>
</g>
</svg>
