<?xml version="1.0" encoding="iso-8859-1"?>
<!-- Generator: Adobe Illustrator 19.0.0, SVG Export Plug-In . SVG Version: 6.00 Build 0)  -->
<svg version="1.1" id="Capa_1" xmlns="http://www.w3.org/2000/svg" xmlns:xlink="http://www.w3.org/1999/xlink" x="0px" y="0px"
	 viewBox="0 0 512 512" style="enable-background:new 0 0 512 512;" xml:space="preserve">
<g>
	<path style="fill:#D4E1F4;" d="M301.195,392.533c-1.351,4.884-5.704,8.334-10.767,8.533h-61.205
		c-5.063-0.199-9.416-3.65-10.767-8.533H38.555c-2.58,0.148-4.555,2.352-4.422,4.932v24.269c-0.133,2.58,1.843,4.784,4.422,4.932
		h434.889c2.58-0.148,4.555-2.352,4.422-4.932v-24.269c0.133-2.58-1.843-4.784-4.422-4.932H301.195z"/>
	<path style="fill:#FFFFFF;" d="M34.133,421.734v-24.269c-0.133-2.58,1.842-4.784,4.422-4.932h-25.09
		c-2.724,0-4.932,2.208-4.932,4.932v24.269c0,2.724,2.208,4.932,4.932,4.932h25.09C35.976,426.518,34,424.315,34.133,421.734z"/>
	<path style="fill:#A4C2F7;" d="M498.534,392.533h-25.09c2.579,0.148,4.555,2.352,4.422,4.932v24.269
		c0.133,2.58-1.842,4.784-4.422,4.932h25.09c1.308,0,2.563-0.52,3.488-1.445c0.925-0.925,1.445-2.18,1.445-3.488v-24.269
		C503.467,394.742,501.258,392.533,498.534,392.533z"/>
	<path style="fill:#D4E1F4;" d="M224.268,392.533c1.633,5.018,6.271,8.446,11.547,8.533h65.641
		c5.276-0.088,9.915-3.515,11.547-8.533h164.863V111.503c0.272-14.173-10.99-25.886-25.163-26.169H76.363
		C62.19,85.617,50.928,97.33,51.2,111.503v281.031H224.268z"/>
	
		<linearGradient id="SVGID_1_" gradientUnits="userSpaceOnUse" x1="-48.7909" y1="652.5654" x2="-47.942" y2="651.3487" gradientTransform="matrix(366.9333 0 0 -256 17990.4668 167139.9531)">
		<stop  offset="0" style="stop-color:#D3DFF2"/>
		<stop  offset="0.1717" style="stop-color:#D3DFF2"/>
		<stop  offset="0.2" style="stop-color:#D3DFF2"/>
		<stop  offset="0.2002" style="stop-color:#DAE2F2"/>
		<stop  offset="0.2007" style="stop-color:#EBEAF2"/>
		<stop  offset="0.2014" style="stop-color:#F6EFF2"/>
		<stop  offset="0.2023" style="stop-color:#FDF2F2"/>
		<stop  offset="0.205" style="stop-color:#FFF3F2"/>
		<stop  offset="0.2522" style="stop-color:#FFF3F2"/>
		<stop  offset="0.26" style="stop-color:#FFF3F2"/>
		<stop  offset="0.26" style="stop-color:#D3DFF2"/>
		<stop  offset="0.3974" style="stop-color:#D3DFF2"/>
		<stop  offset="0.42" style="stop-color:#D3DFF2"/>
		<stop  offset="0.4202" style="stop-color:#DAE2F2"/>
		<stop  offset="0.4207" style="stop-color:#EBEAF2"/>
		<stop  offset="0.4214" style="stop-color:#F6EFF2"/>
		<stop  offset="0.4223" style="stop-color:#FDF2F2"/>
		<stop  offset="0.425" style="stop-color:#FFF3F2"/>
		<stop  offset="0.4894" style="stop-color:#FFF3F2"/>
		<stop  offset="0.5" style="stop-color:#FFF3F2"/>
		<stop  offset="0.5" style="stop-color:#F8F0F2"/>
		<stop  offset="0.5001" style="stop-color:#E7E8F2"/>
		<stop  offset="0.5003" style="stop-color:#DCE3F2"/>
		<stop  offset="0.5005" style="stop-color:#D5E0F2"/>
		<stop  offset="0.501" style="stop-color:#D3DFF2"/>
		<stop  offset="0.7062" style="stop-color:#D3DFF2"/>
		<stop  offset="0.74" style="stop-color:#D3DFF2"/>
		<stop  offset="0.741" style="stop-color:#FFF3F2"/>
		<stop  offset="0.8346" style="stop-color:#FFF3F2"/>
		<stop  offset="0.85" style="stop-color:#FFF3F2"/>
		<stop  offset="0.851" style="stop-color:#D3DFF2"/>
	</linearGradient>
	<rect x="59.733" y="110.933" style="fill:url(#SVGID_1_);" width="366.933" height="256"/>
	<path style="fill:#A4C2F7;" d="M452.267,85.333h9.254c9.028,0,16.346,7.318,16.346,16.346v290.854h-25.6V85.333z"/>
	<path style="fill:#FFFFFF;" d="M59.733,392.533h-9.254c-4.335,0-8.493-1.722-11.558-4.788c-3.065-3.065-4.788-7.223-4.788-11.558
		V97.406c0-3.202,1.272-6.273,3.536-8.537c2.264-2.264,5.335-3.536,8.537-3.536h13.527V392.533z"/>
	<rect x="426.667" y="110.933" style="fill:#A4C2F7;" width="25.6" height="256"/>
	<g>
		<path style="fill:#428DFF;" d="M102.4,196.267c-3.451-0.001-6.562-2.08-7.882-5.268c-1.32-3.188-0.591-6.858,1.849-9.298
			l34.133-34.133c3.341-3.281,8.701-3.256,12.012,0.054c3.311,3.311,3.335,8.671,0.054,12.012l-34.133,34.133
			C106.835,195.369,104.664,196.269,102.4,196.267L102.4,196.267z"/>
		<path style="fill:#428DFF;" d="M102.4,238.933c-3.451-0.001-6.562-2.08-7.882-5.268c-1.32-3.188-0.591-6.858,1.849-9.298
			l17.067-17.067c3.341-3.281,8.701-3.256,12.012,0.054s3.335,8.671,0.054,12.012l-17.067,17.067
			C106.835,238.036,104.664,238.936,102.4,238.933z"/>
		<path style="fill:#428DFF;" d="M136.533,204.8c-0.573-0.02-1.143-0.077-1.708-0.171c-0.533-0.095-1.05-0.268-1.533-0.512
			c-0.546-0.187-1.064-0.447-1.542-0.771c-0.425-0.338-0.85-0.679-1.275-1.021c-3.3-3.365-3.3-8.752,0-12.117
			c2.013-2.001,4.892-2.865,7.675-2.304c0.566,0.079,1.115,0.25,1.625,0.508c0.543,0.188,1.059,0.447,1.533,0.771
			c0.425,0.341,0.858,0.683,1.283,1.025c3.3,3.365,3.3,8.752,0,12.117c-0.425,0.341-0.858,0.683-1.283,1.021
			c-0.475,0.324-0.99,0.583-1.533,0.771c-0.51,0.258-1.059,0.431-1.625,0.513C137.616,204.728,137.076,204.785,136.533,204.8
			L136.533,204.8z"/>
		<path style="fill:#428DFF;" d="M153.6,187.733c-3.451-0.001-6.562-2.08-7.882-5.268c-1.32-3.188-0.591-6.858,1.849-9.298
			l25.6-25.6c3.341-3.281,8.701-3.256,12.012,0.054c3.311,3.311,3.335,8.671,0.054,12.012l-25.6,25.6
			C158.035,186.836,155.864,187.736,153.6,187.733L153.6,187.733z"/>
		<path style="fill:#428DFF;" d="M102.4,281.6c-3.451-0.001-6.562-2.08-7.882-5.268s-0.591-6.858,1.849-9.298l76.8-76.8
			c3.341-3.281,8.701-3.256,12.012,0.054c3.311,3.311,3.335,8.671,0.054,12.012l-76.8,76.8
			C106.835,280.703,104.664,281.603,102.4,281.6L102.4,281.6z"/>
		<path style="fill:#428DFF;" d="M196.267,187.733c-4.024-0.039-7.462-2.911-8.218-6.863c-0.756-3.953,1.38-7.89,5.105-9.412
			c3.726-1.522,8.007-0.205,10.235,3.146s1.783,7.809-1.063,10.654C200.689,186.816,198.526,187.7,196.267,187.733z"/>
		<path style="fill:#428DFF;" d="M213.333,170.667c-3.451-0.001-6.562-2.08-7.882-5.268c-1.32-3.188-0.591-6.858,1.849-9.298
			l8.533-8.533c3.341-3.281,8.701-3.256,12.012,0.054c3.311,3.311,3.335,8.671,0.054,12.012l-8.533,8.533
			C217.768,169.769,215.597,170.669,213.333,170.667L213.333,170.667z"/>
		<path style="fill:#428DFF;" d="M498.533,435.2H13.467C6.033,435.191,0.009,429.167,0,421.733v-24.267
			c0.009-7.434,6.033-13.458,13.467-13.467h206.667l2.025,5.654c0.591,1.698,2.178,2.847,3.975,2.879H294.4
			c1.797-0.032,3.384-1.181,3.975-2.879L300.4,384h198.133c7.434,0.009,13.458,6.033,13.467,13.467v24.267
			C511.991,429.167,505.967,435.191,498.533,435.2z M17.067,418.133h477.867v-17.067H311.392
			c-4.011,5.353-10.303,8.513-16.992,8.533h-68.267c-6.689-0.021-12.981-3.18-16.992-8.533H17.067V418.133z"/>
		<path style="fill:#428DFF;" d="M477.867,281.6c-2.263,0.001-4.434-0.898-6.035-2.499c-1.6-1.6-2.499-3.771-2.499-6.035V111.504
			c-0.009-9.735-7.898-17.626-17.633-17.637H60.3c-9.735,0.012-17.624,7.902-17.633,17.637V153.6c0,4.713-3.821,8.533-8.533,8.533
			S25.6,158.313,25.6,153.6v-42.096C25.62,92.347,41.143,76.822,60.3,76.8h391.4c19.157,0.022,34.68,15.547,34.7,34.704v161.563
			c0.001,2.263-0.898,4.434-2.499,6.035C482.301,280.702,480.13,281.601,477.867,281.6L477.867,281.6z"/>
		<path style="fill:#428DFF;" d="M294.4,409.6h-68.267c-6.689-0.021-12.981-3.18-16.992-8.533H25.6v-179.2
			c0-4.713,3.821-8.533,8.533-8.533s8.533,3.821,8.533,8.533V384h177.467l2.025,5.654c0.591,1.698,2.178,2.847,3.975,2.879H294.4
			c1.797-0.032,3.384-1.181,3.975-2.879L300.4,384h168.933v-34.133c0-4.713,3.821-8.533,8.533-8.533s8.533,3.821,8.533,8.533v51.2
			H311.392C307.381,406.42,301.089,409.579,294.4,409.6L294.4,409.6z"/>
		<circle style="fill:#428DFF;" cx="34.133" cy="187.733" r="8.533"/>
		<path style="fill:#428DFF;" d="M460.8,375.467H51.2V102.4h409.6V375.467z M68.267,358.4h375.467V119.467H68.267V358.4z"/>
		<path style="fill:#428DFF;" d="M477.867,324.267c-2.263,0.001-4.434-0.898-6.035-2.499c-1.6-1.6-2.499-3.771-2.499-6.035V307.2
			c0-4.713,3.821-8.533,8.533-8.533s8.533,3.82,8.533,8.533v8.533c0.001,2.263-0.898,4.434-2.499,6.035
			C482.301,323.368,480.13,324.267,477.867,324.267L477.867,324.267z"/>
	</g>
</g>
<g>
</g>
<g>
</g>
<g>
</g>
<g>
</g>
<g>
</g>
<g>
</g>
<g>
</g>
<g>
</g>
<g>
</g>
<g>
</g>
<g>
</g>
<g>
</g>
<g>
</g>
<g>
</g>
<g>
</g>
</svg>
