<svg height="512" viewBox="0 0 60 60" width="512" xmlns="http://www.w3.org/2000/svg"><g id="015---Investing-Lots-Of-Money" fill="none"><g id="Layer_9" transform="translate(2 1)"><path id="Shape" d="m54.65 27.55c-.5581514 1.3602674-.8337398 2.819865-.81 4.29.0477093 2.7005945-.288997 5.3942445-1 8-1 3-5 7-5 12.07-.0755335 1.6070664.2473781 3.2078834.94 4.66.1895323.284469.2057206.6505686.0420364.9506562-.1636842.3000877-.480252.4846839-.8220364.4793438h-16c-2.5396454-3.4914184-3.9368653-7.683078-4-12v-22h16.51c1.58 3.15 2.33 6.91 3.31 9.86.22-.7 0-.14 1-3 .76-2.2 2.84-5.86 5.18-5.86 1.42 0 1.17 1.31.65 2.55z" fill="#e8edfc"/><path id="Shape" d="m54 25c-.7427031.0280214-1.4513892.3185827-2 .82.001104.5997115-.1357581 1.1916401-.4 1.73-.5581514 1.3602674-.8337398 2.819865-.81 4.29.0477093 2.7005945-.288997 5.3942445-1 8-1 3-5 7-5 12.07-.0755335 1.6070664.2473781 3.2078834.94 4.66.1848697.2770289.2055826.6323406.0541544.9289739s-.4513497.4882646-.7841544.5010261h3c.3292659.0011667.6340509-.1737234.7991888-.4585862.1651379-.2848629.1654472-.6362606.0008112-.9214138-.6999569-1.4365504-1.0364753-3.0229943-.98-4.62 0-5 4-9.05 5-12.07.711003-2.6057555 1.0477093-5.2994055 1-8-.0237398-1.470135.2518486-2.9297326.81-4.29.54-1.33.79-2.64-.63-2.64z" fill="#cad9fc"/><path id="Shape" d="m28 24v22c-.0631347 4.316922-1.4603546 8.5085816-4 12h-16c-.32926587.0011667-.63405087-.1737234-.79918876-.4585862-.1651379-.2848629-.16544728-.6362606-.00081124-.9214138.69995689-1.4365504 1.0364753-3.0229943.98-4.62 0-5-4-9.05-5-12.07-.71100304-2.6057555-1.04770929-5.2994055-1-8 .02373981-1.470135-.25184856-2.9297326-.81-4.29-.56-1.37-.76-2.64.63-2.64 2.36 0 4.43 3.78 5.18 5.84l1 3c1.54-5.16 2.06-7.36 3.31-9.86z" fill="#e8edfc"/><path id="Shape" d="m50 20v3c0 .5522847-.4477153 1-1 1h-42c-.55228475 0-1-.4477153-1-1v-3z" fill="#cad9fc"/><path id="Shape" d="m47 20v3c0 .5522847-.4477153 1-1 1h-39c-.55228475 0-1-.4477153-1-1v-3z" fill="#e8edfc"/><path id="Shape" d="m50 1v19h-44v-19c0-.55228475.44771525-1 1-1h42c.5522847 0 1 .44771525 1 1z" fill="#cad9fc"/><g fill="#e8edfc"><path id="Shape" d="m47 1v19h-41v-19c0-.55228475.44771525-1 1-1h39c.5522847 0 1 .44771525 1 1z"/><path id="Shape" d="m43.07 4c.7050054 1.21503487 1.7149651 2.22499463 2.93 2.93v6.14c-1.2150349.7050054-2.2249946 1.7149651-2.93 2.93h-30.14c-.7050054-1.2150349-1.7149651-2.2249946-2.93-2.93v-6.14c1.2150349-.70500537 2.2249946-1.71496513 2.93-2.93z"/></g></g><g id="Layer_9_copy" fill="#fff" transform="translate(2 1)"><path id="Shape" d="m7 24h3c-.55228475 0-1-.4477153-1-1v-22c0-.55228475.44771525-1 1-1h-3c-.55228475 0-1 .44771525-1 1v22c0 .5522847.44771525 1 1 1z"/><path id="Shape" d="m2.16 31.84c-.04770929 2.7005945.28899696 5.3942445 1 8 1 3 5 7 5 12.07.07553349 1.6070664-.24737808 3.2078834-.94 4.66-.1895323.284469-.20572061.6505686-.04203643.9506562.16368419.3000877.48025198.4846839.82203643.4793438h3c-.3292659.0011667-.6340509-.1737234-.7991888-.4585862-.1651379-.2848629-.1654472-.6362606-.0008112-.9214138.6999569-1.4365504 1.0364753-3.0229943.98-4.62 0-5-4-9.05-5-12.07-.71100304-2.6057555-1.04770929-5.2994055-1-8 .02373981-1.470135-.25184856-2.9297326-.81-4.29-.26160771-.5701555-.38822105-1.1929562-.37-1.82-.54861079-.5014173-1.2572969-.7919786-2-.82-1.39 0-1.19 1.27-.65 2.55.55815144 1.3602674.83373981 2.819865.81 4.29z"/><path id="Shape" d="m10.18 30.84 1 3c1.54-5.16 2.06-7.36 3.31-9.86h-3c-.8315529 1.7068933-1.5011529 3.4880293-2 5.32.25692924.5008385.48724949 1.0148866.69 1.54z"/></g><path id="Shape" d="m6.79 46 1.72-1c1.5925613 2.3783646 2.514887 5.1418871 2.67 8h-2c-.15858207-2.5046342-.98372284-4.9213645-2.39-7z" fill="#fff"/><g fill="#428dff"><path id="Shape" d="m30.12 10c-1.8-.22-2.12-.41-2.12-1.25 0-1.44 3.3-1.71 4.13-.39.2761424.48324912.8917508.65114231 1.375.37499995.4832491-.27614236.6511423-.8917508.375-1.37499995-.6635202-.97385583-1.7114462-1.61789374-2.88-1.77v-.59c0-.55228475-.4477153-1-1-1s-1 .44771525-1 1v.61c-1.6368447.16499375-2.9097833 1.49733616-3 3.14 0 2.76 2.43 3.06 3.88 3.24 1.8.23 2.12.42 2.12 1.26 0 1.09-1.25 1.25-2 1.25-.7955202.0568423-1.59057-.1167493-2.29-.5-.3921222-.3921222-1.0278778-.3921222-1.42 0s-.3921222 1.0278778 0 1.42c.7696372.620779 1.7216037.9720582 2.71 1v.58c0 .5522847.4477153 1 1 1s1-.4477153 1-1v-.58c1.6772521-.1049871 2.9875276-1.4895116 3-3.17 0-2.76-2.43-3.06-3.88-3.25z"/><path id="Shape" d="m23 5c0-.55228475-.4477153-1-1-1h-7.07c-.3586848-.00142401-.690659.18936581-.87.5-.6140798 1.06305827-1.4969417 1.94592017-2.56 2.56-.3106342.17934097-.501424.51131524-.5.87v6.14c-.001424.3586848.1893658.690659.5.87 1.0630583.6140798 1.9459202 1.4969417 2.56 2.56.179341.3106342.5113152.501424.87.5h7.07c.5522847 0 1-.4477153 1-1s-.4477153-1-1-1h-6.52c-.6533636-.9834904-1.4965096-1.8266364-2.48-2.48v-5c.9874017-.66506134 1.8308212-1.52208437 2.48-2.52h6.52c.5522847 0 1-.44771525 1-1z"/><path id="Shape" d="m48.5 7.06c-1.0630583-.61407983-1.9459202-1.49694173-2.56-2.56-.179341-.31063419-.5113152-.50142401-.87-.5h-7.07c-.5522847 0-1 .44771525-1 1s.4477153 1 1 1h6.52c.6533636.98349039 1.4965096 1.82663645 2.48 2.48v5c-.9874017.6650613-1.8308212 1.5220844-2.48 2.52h-6.52c-.5522847 0-1 .4477153-1 1s.4477153 1 1 1h7.07c.3586848.001424.690659-.1893658.87-.5.6140798-1.0630583 1.4969417-1.9459202 2.56-2.56.3106342-.179341.501424-.5113152.5-.87v-6.14c.001424-.35868476-.1893658-.69065903-.5-.87z"/><circle id="Oval" cx="20" cy="11" r="1"/><circle id="Oval" cx="40" cy="11" r="1"/><path id="Shape" d="m43.5 40.13c-.22.13-5.38 3.13-7 8.58-.0910317.2570884-.0731104.5402035.0496124.7837612.1227229.2435576.3395986.4264244.6003876.5062388.2546104.0777061.5296954.0506869.7643212-.0750725.2346257-.1257594.4094252-.3398783.4856788-.5949275 1.4-4.67 6.05-7.4 6.1-7.42.3108211-.1786328.5027321-.5095174.5034421-.8680127.00071-.3584954-.1898889-.6901375-.5-.87-.3101111-.1798626-.692621-.1806201-1.0034421-.0019873z"/><path id="Shape" d="m21.6 49.29c.0762536.2550492.2510531.4691681.4856788.5949275.2346258.1257594.5097108.1527786.7643212.0750725.2550492-.0762536.4691681-.2510531.5949275-.4856788.1257594-.2346258.1527786-.5097108.0750725-.7643212-1.64-5.45-6.8-8.45-7-8.58-.4804877-.2761424-1.0938576-.1104877-1.37.37s-.1104877 1.0938576.37 1.37c.03.03 4.67 2.72 6.08 7.42z"/><path id="Shape" d="m9.45 50.05c-.55228475 0-1-.4477153-1-1s.44771525-1 1-1c.5522847 0 1 .4477153 1 1s-.4477153 1-1 1z"/><path id="Shape" d="m10.13 31.54v-.05c-.26-.66-2.53-6.49-6.13-6.49-.68692818-.0556694-1.3509987.2610998-1.74.83-.63.94-.2 2.22.17 3.11.50138218 1.2381922.74960059 2.5642905.73 3.9 0 6 1 8.11 1 8.37.72947051 1.6731794 1.60977114 3.2764646 2.63 4.79.27427938.4702265.87430257.6346773 1.35.37.23143971-.1319512.40065959-.350799.47012165-.6079963.06946206-.2571974.03342336-.53148-.10012165-.7620037-.91611803-1.3967932-1.71869287-2.8648364-2.4-4.39-.73388262-2.5122829-1.07127394-5.1236917-1-7.74.02264119-1.6041145-.28012192-3.1961723-.89-4.68-.15814375-.3785683-.25274741-.7806338-.28-1.19 1.76-.09 3.67 3.49 4.29 5.15l1 2.94c.26153083 1.7023806 1.0563087 3.2779314 2.27 4.5.2536586.2536586.623374.3527235.969878.259878.3465041-.0928454.6171546-.3634959.71-.71.0928455-.346504-.0062194-.7162194-.259878-.969878-.8812576-.8580026-1.4810735-1.9634771-1.72-3.17 1.87-6.25 2-7.09 2.92-9h2.37c-.7740663 1.8539549-1.2076633 3.8322413-1.28 5.84 0 .3572656.1905989.6873926.5.8660254s.6905989.1786328 1 0 .5-.5087598.5-.8660254c.1010198-2.0221338.5934538-4.0054541 1.45-5.84h2.26c-1.014988 2.1440748-1.5896534 4.4699393-1.69 6.84 0 .5522847.4477153 1 1 1s1-.4477153 1-1c.1397222-2.3879153.7838704-4.7191183 1.89-6.84h2.12c-1.2270963 3.147676-1.9036262 6.4829685-2 9.86 0 .5522847.4477153 1 1 1s1-.4477153 1-1c.1150086-3.3885626.8399342-6.7286405 2.14-9.86h1.62v21c-.0730755 3.9303659-1.2930724 7.7537178-3.51 11h-15.32c.7203536-1.5653373 1.062889-3.2780142 1-5 0-.5522847-.4477153-1-1-1-.55228475 0-1 .4477153-1 1 .07768053 1.4397849-.20411851 2.8762727-.82 4.18-.30627574.5884996-.28882211 1.2930582.0462172 1.8656708s.94069757.9330089 1.6037828.9543292h16c.304272-.0014028.5913526-.1412626.78-.38 1.4269381-1.9179623 2.5159189-4.0654866 3.22-6.35.7040811 2.2845134 1.7930619 4.4320377 3.22 6.35.1886474.2387374.475728.3785972.78.38h16c.6803599-.0039256 1.308392-.3657903 1.6529953-.9524364.3446033-.586646.3548633-1.3113977.0270047-1.9075636-.6231554-1.2881449-.9185667-2.7102414-.86-4.14 0-4.7 3.9-8.56 5-11.75.7863697-2.717755 1.1406931-5.5422192 1.05-8.37-.0196006-1.3357095.2286178-2.6618078.73-3.9.37-.88.8-2.17.18-3.11-.397919-.5841563-1.0746194-.9149032-1.78-.87-3.6 0-5.87 5.83-6.13 6.52 0 .12-.83-3.18-1.82-5.52h3c1.1045695 0 2-.8954305 2-2v-22c0-1.1045695-.8954305-2-2-2h-42.05c-1.1045695 0-2 .8954305-2 2v22c0 1.1045695.8954305 2 2 2h3c-.7400352 1.8051985-1.3646267 3.6555925-1.87 5.54zm38.67 3.46c-.2213893 1.2199472-.8152788 2.3413501-1.7 3.21-.2884599.2860905-.3751619.7182668-.219371 1.0934815.155791.3752147.5231059.6188811.929371.6165185.265803.0015368.5212812-.1028135.71-.29 1.2136913-1.2220686 2.0084692-2.7976194 2.27-4.5l1-2.9c.62-1.68 2.53-5.29 4.3-5.19-.0463471.4020076-.1578037.7937943-.33 1.16-.6098781 1.4838277-.9126412 3.0758855-.89 4.68.0712739 2.6163083-.2661174 5.2277171-1 7.74-1 2.84-5.07 7-5.07 12.38-.062889 1.7219858.2796464 3.4346627 1 5h-15.29c-2.2169276-3.2462822-3.4369245-7.0696341-3.51-11v-21h1.62c1.3000658 3.1313595 2.0249914 6.4714374 2.14 9.86 0 .5522847.4477153 1 1 1s1-.4477153 1-1c-.0963738-3.3770315-.7729037-6.712324-2-9.86h2.12c1.1061296 2.1208817 1.7502778 4.4520847 1.89 6.84 0 .5522847.4477153 1 1 1s1-.4477153 1-1c-.1003466-2.3700607-.675012-4.6959252-1.69-6.84h2.26c.8565462 1.8345459 1.3489802 3.8178662 1.45 5.84 0 .5522847.4477153 1 1 1s1-.4477153 1-1c-.0723367-2.0077587-.5059337-3.9860451-1.28-5.84h2.37c.9 1.93 1.12 3 2.92 9zm-39.8-33h42v18h-42zm0 20h42v2h-42z"/><path id="Shape" d="m59.89 20.55c-.2495756-.490313-.8483464-.6869243-1.34-.44l-2 1c-.4101627.2101126-.6236218.6733224-.51688 1.1216381.1067419.4483157.5060402.7656308.96688.7683619.31 0 .25 0 2.45-1.11.490313-.2495756.6869243-.8483464.44-1.34z"/><path id="Shape" d="m57.17 14.45-2 3c-.2440793.4550261-.101585 1.0210631.3288453 1.306288s1.0072424.1958368 1.3311547-.206288l2-3c.2440793-.4550261.101585-1.0210631-.3288453-1.306288s-1.0072424-.1958368-1.3311547.206288z"/><path id="Shape" d="m.11 20.55c-.2469243.4916536-.05031299 1.0904244.44 1.34l2 1c.32118077.1932607.72347054.1906728 1.04213834-.0067041.3186678-.1973768.50019272-.5563928.47024333-.9300368s-.26634303-.6991617-.61238167-.8432591l-2-1c-.49165355-.2469243-1.09042437-.050313-1.34.44z"/><path id="Shape" d="m2.83 14.45c-.1793781-.3344065-.53258209-.5384678-.91188262-.5268341-.37930054.0116337-.71933469.2369575-.87788146.5817287-.15854678.3447711-.10828461.749577.12976408 1.0451054l2 3c.1793781.3344065.53258209.5384678.91188262.5268341.37930054-.0116337.71933469-.2369575.87788146-.5817287.15854678-.3447711.10828462-.749577-.12976408-1.0451054z"/></g></g></svg>