<svg height="512" viewBox="0 0 60 60" width="512" xmlns="http://www.w3.org/2000/svg"><g id="011---Investing" fill="none"><g id="Layer_9" transform="translate(7 1)"><path id="Shape" d="m21.05 42.3-.42.18c-.52956.2040387-.9475047.6234449-1.1496936 1.153714-.2021889.530269-.1695829 1.1214679.0896936 1.626286.9414941 1.7666045 1.4326698 3.7381769 1.43 5.74 0 5-4 7-9 7s-9-2-9-7c-.0026698-2.0018231.48850589-3.9733955 1.43-5.74.25927646-.5048181.2918825-1.096017.08969358-1.626286-.20218892-.5302691-.62013356-.9496753-1.14969358-1.153714l-.37-.18c-1.04381814-.4142136-1.55421348-1.5961818-1.13999993-2.64.41421355-1.0438181 1.59618176-1.5542135 2.63999993-1.14 5.79 1.92 8.92 1.85 14 .35.5504645-.236995 1.1338251-.3887362 1.73-.45 1.0005595-.0774266 1.903576.5986297 2.1110831 1.5804927.2075072.9818631-.344754 1.965478-1.2910831 2.2995073z" fill="#cad9fc"/><path id="Shape" d="m18.05 42.3-.42.18c-.52956.2040387-.9475047.6234449-1.1496936 1.153714-.2021889.530269-.1695829 1.1214679.0896936 1.626286.9414941 1.7666045 1.4326698 3.7381769 1.43 5.74 0 4.49-3.22 6.56-7.5 6.93-4.28-.37-7.5-2.44-7.5-6.93-.0026698-2.0018231.48850589-3.9733955 1.43-5.74.25927646-.5048181.2918825-1.096017.08969358-1.626286-.20218892-.5302691-.62013356-.9496753-1.14969358-1.153714l-.37-.18c-.65230788-.2830882-1.10525235-.8912407-1.18965026-1.5973013-.08439791-.7060605.21244419-1.4038377.77965026-1.8326987 2.57364983.8619434 5.29336871 1.2019083 8 1 2.7066447.2024472 5.4264698-.1375309 8-1l.42.45c.3378306.5074652.4257625 1.1413051.2388316 1.7215699-.186931.5802648-.6283114 1.043588-1.1988316 1.2584301z" fill="#e8edfc"/><path id="Shape" d="m51.14 4.88c-10.65-1.53-29.05-4.88-33.14-4.88-3 0-9 11.08-9 15v9c-.64602606.7746411-.99989825 1.7513284-1 2.76-.03107023 1.4421346.96860094 2.7022243 2.38 3 7.13 1.67 10.03-7.76 17.62-7.76 7.86 0 9.61-2.82 15.54-2.17 1.09.13 5.28.72 7.32 1 .2884984.0408059.5804464-.0462452.7994864-.2383855.21904-.1921404.3433852-.4702587.3405136-.7616145v-14c-.0194589-.48286947-.3814427-.88273533-.86-.95zm-28.37 11c-2.15 1.46-6.55 4.38-8.77 5.12.5984842-1.2526802.9385777-2.6130543 1-4 1.3569108-.8592296 2.1267628-2.3989336 2-4 1.4176627-.4413588 2.8742983-.7460803 4.35-.91.9357562-.0846553 1.8129822.4655358 2.1441675 1.3448096.3311854.8792738.0349125 1.8714724-.7241675 2.4251904z" fill="#e8edfc"/><path id="Shape" d="m51.14 4.88c-10.65-1.53-29.05-4.88-33.14-4.88-.2354657.01257125-.4663203.07028489-.68.17 7.77.83 19.43 3.08 30.82 4.71.4970163.07024958.8649401.49806797.86 1v14c-.0037034.2588682-.1076592.5062113-.29.69l2.15.3c.2884984.0408059.5804464-.0462452.7994864-.2383855.21904-.1921404.3433852-.4702587.3405136-.7616145v-14c-.0000755-.49813811-.3667678-.92026067-.86-.99z" fill="#cad9fc"/><path id="Shape" d="m14 21c-1.8510822.6543706-3.5515167 1.6746313-5 3z" fill="#e8edfc"/><path id="Shape" d="m12 36c-1.9242114-.0133711-3.67000674-1.1297896-4.48935002-2.8708941-.81934329-1.7411045-.56682739-3.7979048.64935002-5.2891059.33173489 1.0139827 1.17701923 1.7755002 2.22 2 2.0852687.4675605 4.2709053.0158623 6-1.24.8470674 1.5481332.8153104 3.4281434-.0835609 4.9467843-.8988712 1.5186408-2.5317197 2.4509779-4.2964391 2.4532157z" fill="#e8edfc"/><g fill="#cad9fc"><path id="Shape" d="m16.34 28.57c-.7753069.5100054-1.6208803.9041571-2.51 1.17.6541772 2.5662813-.8061595 5.1975185-3.33 6 1.9400086.5854365 4.0415334-.0579621 5.3212741-1.6291505 1.2797407-1.5711885 1.4846005-3.7594299.5187259-5.5408495z"/><path id="Shape" d="m13.8 3.75c-2.48 3.57-4.8 8.76-4.8 11.25v.57c-1.1 1.42-1.46 1-1.9 2.07l-2.2 5.13c-.37003078 1.0576253-1.5273747 1.6150308-2.585 1.245s-1.61503078-1.5273747-1.245-2.585l2.07-7.58c.3-1.13.54-1.34 3.92-6.74.84061565-1.34890829 2.18210192-2.3091679 3.73-2.67z"/></g></g><g id="Layer_9_copy" fill="#fff" transform="translate(7 1)"><path id="Shape" d="m4.91 55.79c1.82 1.7 4.61 2.21 7.09 2.21.52 0 1 0 1.51-.07-2.0512553-.0778704-4.01957515-.8300498-5.6-2.14-2.79-2.6-2.17-7.35-.48-10.53.25927646-.5048181.2918825-1.096017.08969358-1.626286-.20218892-.5302691-.62013356-.9496753-1.14969358-1.153714-.77-.31-.8-.4-1-.6-.40882638-.4049388-.62343191-.9663457-.58896836-1.5407381.03446354-.5743924.31465663-1.1061114.76896836-1.4592619l-1.1-.35c-.90767068-.3824328-1.95865379-.0470905-2.47708527.7903758-.51843149.8374662-.34995529 1.927712.39708527 2.5696242.2.2.23.29 1 .6.52956002.2040387.94750466.6234449 1.14969358 1.153714.20218892.530269.16958288 1.1214679-.08969358 1.626286-1.69 3.17-2.31 7.92.48 10.52z"/><path id="Shape" d="m9 24c-.64602606.7746411-.99989825 1.7513284-1 2.76-.00663099.3663628.04743322.7312962.16 1.08-1.2253651 1.5023994-1.47176236 3.5777432-.63225118 5.3252971s2.61358808 2.8522778 4.55225118 2.8347029c.4850325-.0008144.967152-.0749866 1.43-.22-1.5777031-.5032804-2.8038642-1.7550809-3.2743914-3.34286-.47052727-1.5877792-.1243705-3.305525.9243914-4.58714-.1136645-.3518873-.1677422-.7202916-.16-1.09.0001018-1.0086716.3539739-1.9853589 1-2.76v-8.43c-1.1 1.42-1.46 1-1.9 2.07l-1.1 2.56z"/><path id="Shape" d="m3 24c.57288184.0018059 1.11903453-.2421423 1.5-.67-.47349839-.5101445-.64772355-1.2297702-.46-1.9l2.07-7.58c.3-1.13.54-1.34 3.92-6.74.8406157-1.34890829 2.1821019-2.3091679 3.73-2.67l3-.69c.8678229-1.46950837 2.0878464-2.69984195 3.55-3.58-.97-.11-1.77-.17-2.31-.17-1.14 0-2.71 1.58-4.21 3.75l-3 .69c-1.54789808.3608321-2.88938435 1.32109171-3.73 2.67-3.38 5.4-3.62 5.61-3.92 6.74l-2.07 7.58c-.18060011.6073555-.06270854 1.2643637.3177896 1.7710374.38049813.5066737.97858575.8030678 1.6122104.7989626z"/></g><path id="Shape" d="m14.55 57.26-.74 1.86c-2.9947787-1.0571323-4.94711629-3.9470791-4.81-7.12h2c-.1335896 2.3519921 1.3188152 4.5040059 3.55 5.26z" fill="#fff"/><g fill="#428dff"><path id="Shape" d="m58.28 4.89c-10.9-1.56-29.05-4.89-33.28-4.89-1.41 0-3.15 1.61-4.78 3.86l-2.65.61c-1.8113676.41052108-3.3821414 1.53095831-4.36 3.11l-3.21 5.14c-.78 1.24-.78 1.73-2.88 9.45-.55228472 1.576773.27822707 3.3027152 1.85500001 3.855 1.57677299.5522847 3.30271519-.2782271 3.85499999-1.855l2.17-5.1v5.58c-.8122921 1.1642391-1.1420266 2.5978676-.92 4-1.6330931 2.3469365-1.3832303 5.5201849.5970569 7.5826025 1.9802873 2.0624176 5.1407693 2.4409544 7.5520968.9045287 2.4113274-1.5364257 3.4035045-4.5609127 2.3708463-7.2271312 3.4-2.49 6.05-5.91 10.4-5.91 3.2771934-.0446982 6.528213-.5910313 9.64-1.62 1.8687041-.5940875 3.8428612-.7816153 5.79-.55 1 .12 5 .68 7.29 1 .5769967.0816119 1.1608928-.0924904 1.5989728-.476771.4380799-.3842807.6867703-.9405175.6810272-1.523229v-14c-.0198018-.98104306-.7483926-1.80282582-1.72-1.94zm-44.06 12c-.88.6-.88.95-3.24 6.45-.1617672.3197504-.4728555.5372958-.8287016.5795149-.35584619.042219-.70920239-.096494-.9412984-.3695149-.19690877-.2360041-.27434836-.54945-.21-.85 2.25-8.26 2.13-8.09 2.65-8.92l3.25-5.14c.6995365-1.12041995 1.8139981-1.9185182 3.1-2.22l.62-.15c-1.49 2.52-3.64 7-3.64 9.92-.2203049.2784599-.4757653.5271977-.76.74zm4.78 19.11c-1.2819728-.0052419-2.4837586-.6246279-3.2318888-1.6656769-.7481302-1.0410489-.9519467-2.3776068-.5481112-3.5943231.5406896.5177984 1.2108042.8804893 1.94 1.05 1.9331379.4566229 3.967249.1711336 5.7-.8.312383 1.1970555.053286 2.4712931-.70177 3.451301-.7550559.9800079-1.9210903 1.5554874-3.15823 1.558699zm31.65-16.16c-2.2270439-.2624976-4.4844851-.0442555-6.62.64-2.9158028.9604444-5.9604488 1.4729429-9.03 1.52-8 0-10.93 9.3-17.39 7.84-.9502315-.188737-1.6285624-1.0313839-1.61-2-.0070277-.7569977.243317-1.4939279.71-2.09 1.3390243-1.2134047 2.9061213-2.1482239 4.61-2.75 2.3-.77 6.63-3.63 9-5.26 1.1344478-.8118086 1.5842875-2.2830451 1.0978065-3.5904629s-1.7886265-2.1267528-3.1778065-1.9995371c-1.4697439.1491576-2.9225769.4336986-4.34.85-.4568378-.1055818-.8714216-.3459708-1.19-.69-.3921222-.3921222-1.0278778-.3921222-1.42 0s-.3921222 1.0278778 0 1.42c.4660354.4719323 1.0290116.8370138 1.65 1.07-.0895758.8574245-.5091592 1.6463846-1.17 2.2-.4053779-.1226197-.7710894-.3503269-1.06-.66-.3921222-.3921222-1.0278778-.3921222-1.42 0s-.3921222 1.0278778 0 1.42c.4660354.4719323 1.0290116.8370138 1.65 1.07-.1237795.8353297-.3522429 1.6517505-.68 2.43-1.1421158.4286775-2.2350189.9784815-3.26 1.64v-6.9c0-4.15 6-14 8-14 4 0 21.88 3.28 33 4.87v14c-2.28-.35-6.27-.87-7.35-1.03zm-27.65-1.3c1.1575108-.9318517 1.8807624-2.2987973 2-3.78 1.1461942-.3216345 2.316757-.5490581 3.5-.68.4731379-.05727.9209442.2273172 1.07.68v.14c.1238134.4080511-.0247496.8497249-.37 1.1-2.59 1.77-4.82 3.18-6.47 4.07.1268528-.5028057.2170892-1.0141457.27-1.53z"/><path id="Shape" d="m11.06 56.83c-.5522847 0-1-.4477153-1-1s.4477153-1 1-1 1 .4477153 1 1-.4477153 1-1 1z"/><path id="Shape" d="m0 49c0 .5522847.44771525 1 1 1 4.38 0 6.72-1.93 9.06-3.15-.69642991 1.6278022-1.05696916 3.3794788-1.06 5.15 0 .5522847.44771525 1 1 1 .5522847 0 1-.4477153 1-1-.0043173-1.837782.4456951-3.6481374 1.31-5.27.3933853-.7555828.4470045-1.6427777.14748-2.4402377-.2995244-.79746-.923947-1.4299838-1.71748-1.7397623-.123376-.0453881-.2436352-.0988367-.36-.16-.53019334-.2098682-.78986817-.8098066-.57999997-1.34.20986817-.5301933.80980657-.7898682 1.33999997-.58 6.06 2 9.65 2 15.72 0 .5301934-.2098682 1.1301318.0498067 1.34.58.2098682.5301934-.0498067 1.1301318-.58 1.34-.1163648.0611633-.236624.1146119-.36.16-.793533.3097785-1.4179556.9423023-1.71748 1.7397623-.2995245.79746-.2459053 1.6846549.14748 2.4402377.8643049 1.6218626 1.3143173 3.432218 1.31 5.27 0 5.22-5 6-8 6-1.5161354.0279493-3.0245052-.2228807-4.45-.74-.4910659-.162672-1.0278277.0528781-1.27.51-.1160821.2484049-.1250752.5335775-.0248756.788803s.3008015.4581127.5548756.561197c1.6615851.608413 3.4207292.9066879 5.19.88 6.26 0 10-3 10-8-.0030308-1.7705212-.3635701-3.5221978-1.06-5.15 2.4 1.25 4.7 3.15 9.06 3.15.5522847 0 1-.4477153 1-1s-.4477153-1-1-1c-4.4 0-6.35-2.28-9.24-3.43.51-.39 1.88-.6 2.35-2.3.3309392-1.0848797.021738-2.2636454-.7991-3.0464033-.8208379-.7827578-2.0129517-1.0356585-3.0809-.6535967-5.63 1.88-8.82 1.88-14.46 0-1.0679483-.3820618-2.26006209-.1291611-3.08090004.6535967-.82083794.7827579-1.13003918 1.9615236-.79909996 3.0464033.29578233 1.024489 1.08978864 1.8297845 2.11 2.14.0859061.0438935.1664421.0975842.24.16-2.9 1.16-4.85 3.43-9.24 3.43-.55228475 0-1 .4477153-1 1z"/><path id="Shape" d="m15 46h2c.5522847 0 1-.4477153 1-1s-.4477153-1-1-1h-2c-.5522847 0-1 .4477153-1 1s.4477153 1 1 1z"/><path id="Shape" d="m23 46c.5522847 0 1-.4477153 1-1s-.4477153-1-1-1h-2c-.5522847 0-1 .4477153-1 1s.4477153 1 1 1z"/><path id="Shape" d="m29.29 32.29-1 1c-.3921221.3921222-.3921221 1.0278778 0 1.42.3921222.3921221 1.0278778.3921221 1.42 0l1-1c.3921221-.3921222.3921221-1.0278778 0-1.42-.3921222-.3921221-1.0278778-.3921221-1.42 0z"/><path id="Shape" d="m32 38h2c.5522847 0 1-.4477153 1-1s-.4477153-1-1-1h-2c-.5522847 0-1 .4477153-1 1s.4477153 1 1 1z"/><path id="Shape" d="m9 35c.40626507.0023626.77358004-.2413038.92937095-.6165185.15579095-.3752147.069089-.807391-.21937095-1.0934815l-1-1c-.25365856-.2536586-.62337399-.3527236-.96987806-.2598781-.34650406.0928455-.61715454.363496-.71000002.71-.09284548.3465041.00621949.7162195.25987808.9698781 1.06 1.06 1.19 1.29 1.71 1.29z"/><path id="Shape" d="m6 38c.55228475 0 1-.4477153 1-1s-.44771525-1-1-1h-2c-.55228475 0-1 .4477153-1 1s.44771525 1 1 1z"/></g></g></svg>