<svg height="512" viewBox="0 0 60 60" width="512" xmlns="http://www.w3.org/2000/svg"><g id="Page-1" fill="none" fill-rule="evenodd"><g id="088---Piggy-Bank" fill-rule="nonzero"><path id="Shape" d="m39 12c0 6.0751322-4.9248678 11-11 11s-11-4.9248678-11-11c0-6.07513225 4.9248678-11 11-11 6.0723907.00661361 10.9933864 4.92760931 11 11z" fill="#a4c2f7"/><path id="Shape" d="m28 1c-.5020055.00396839-1.0031606.04205618-1.5.114 5.4428073.74007359 9.5035844 5.38477383 9.5101422 10.8776617.0065577 5.4928879-4.0431175 10.1472709-9.4841422 10.9003383 4.0811506.575663 8.1416868-1.1784145 10.5200814-4.544483s2.6755386-7.7792814.7698438-11.43379986c-1.9056947-3.65451849-5.6944411-5.93709235-9.8159252-5.91371714z" fill="#7facfa"/><path id="Shape" d="m59 30.79v7.42c.00109 1.0202464-.7659442 1.8777734-1.78 1.99l-3.56.39c-1.722246 3.582151-4.4954854 6.5542264-7.95 8.52l-.64 8.96c-.0419656.5223016-.4760306.9259821-1 .93h-6.14c-.5239694-.0040179-.9580344-.4076984-1-.93l-.39-5.57c-2.9899574.6666536-6.0900426.6666536-9.08 0l-.39 5.57c-.0419656.5223016-.4760306.9259821-1 .93h-6.14c-.5239694-.0040179-.9580344-.4076984-1-.93l-.64-8.96c-.2-.12-.39-.24-.58-.36-5.81-3.7-9.86-10.19-8.4-17.23 1.14-5.51 5.31-9.98 10.31-12.39 2.2938469 2.6915213 5.7404924 4.1180278 9.2655206 3.8348373 3.5250282-.2831904 6.6997365-2.2416371 8.5344794-5.2648373 1.247179.2860136 2.4760573.6466627 3.68 1.08.0702097-.5524897.2113738-1.0936189.42-1.61.6145939-1.5200419 1.6015153-2.8611547 2.87-3.9 1.08-.89 3.31-2.53 4.67-1.33.7224095.8528095 1.1035661 1.9428461 1.07 3.06.193286 1.385298.216793 2.7890069.07 4.18-.1165022 1.1246395-.5231099 2.199738-1.18 3.12 1.9628665 1.6841899 3.5446066 3.7670417 4.64 6.11l3.56.39c1.0140558.1122266 1.78109.9697536 1.78 1.99z" fill="#e8edfc"/><path id="Shape" d="m25 23c.5105416-.0009579 1.0204124-.0370432 1.526-.108-2.6876424-.3579692-5.147676-1.698057-6.906-3.762-.6646761.3223666-1.3119065.6795283-1.939 1.07 2.0102318 1.8050551 4.6172875 2.8024258 7.319 2.8z" fill="#cad9fc"/><path id="Shape" d="m57.22 28.8-3.56-.39c-1.0953934-2.3429583-2.6771335-4.4258101-4.64-6.11.6568901-.920262 1.0634978-1.9953605 1.18-3.12.146793-1.3909931.123286-2.794702-.07-4.18.0335661-1.1171539-.3475905-2.2071905-1.07-3.06-.8-.708-1.907-.425-2.9.106.6442474.8486598.985738 1.8886219.97 2.954.193286 1.385298.216793 2.7890069.07 4.18-.1165022 1.1246395-.5231099 2.199738-1.18 3.12 1.9628665 1.6841899 3.5446066 3.7670417 4.64 6.11l3.56.39c1.0140558.1122266 1.78109.9697536 1.78 1.99v7.42c.00109 1.0202464-.7659442 1.8777734-1.78 1.99l-3.56.39c-1.722246 3.582151-4.4954854 6.5542264-7.95 8.52l-.64 8.96c-.0419656.5223016-.4760306.9259821-1 .93h3c.5239694-.0040179.9580344-.4076984 1-.93l.64-8.96c3.4545146-1.9657736 6.227754-4.937849 7.95-8.52l3.56-.39c1.0140558-.1122266 1.78109-.9697536 1.78-1.99v-7.42c.00109-1.0202464-.7659442-1.8777734-1.78-1.99z" fill="#cad9fc"/><path id="Shape" d="m24.46 52.5-.39 5.57c-.0419656.5223016-.4760306.9259821-1 .93h3c.5239694-.0040179.9580344-.4076984 1-.93l.359-5.124c-.9973932-.0916694-1.9886941-.2405816-2.969-.446z" fill="#cad9fc"/><path id="Shape" d="m18.29 49.11.64 8.96c.0419656.5223016.4760306.9259821 1 .93h3c-.5239694-.0040179-.9580344-.4076984-1-.93l-.64-8.96c-6.327-3.8-10.455-10.479-8.98-17.59 1.131-5.465 5.265-9.958 10.31-12.39-2.5983951-3.0603748-3.3231466-7.2932828-1.8908971-11.04377777 1.4322494-3.750495 4.7939976-6.42283917 8.7708971-6.97222223.019 0 .038 0 .057-.006-1.0146329-.13548665-2.0429067-.13346845-3.057.006-3.9768995.54938306-7.3386477 3.22172723-8.7708971 6.97222223-1.4322495 3.75049497-.707498 7.98340297 1.8908971 11.04377777-5.045 2.432-9.179 6.925-10.31 12.39-1.475 7.111 2.653 13.793 8.98 17.59z" fill="#fff"/><path id="Shape" d="m13.74 43.984-1.53 1.289c-1.8462708-2.1562281-3.15536207-4.719237-3.82-7.479l1.951-.441c.5935636 2.4476965 1.7583464 4.7200339 3.399 6.631z" fill="#fff"/><g fill="#428dff"><path id="Shape" d="m10.763 42.324c-.5522847.0027614-1.00223852-.4427153-1.00499994-.995-.00276143-.5522847.44271524-1.0022385.99499994-1.005h.01c.5522847 0 1 .4477153 1 1s-.4477153 1-1 1z"/><path id="Shape" d="m16.306 22.384c.4321628-.3440734.5035734-.9733372.1595-1.4055s-.9733372-.5035734-1.4055-.1595c-3.3961989 2.6107986-5.7760707 6.3238229-6.73 10.5-.1910226.9500137-.29147275 1.9160093-.3 2.885-.662.043-1.306.086-1.927.107.036-.152.066-.307.089-.466.19444347-1.0900265-.13608114-2.2079556-.892-3.017-1.11660765-1.0098393-2.78612411-1.1047644-4.01-.228-.66730674.4699689-1.12055212 1.1858089-1.26 1.99-.12271433.9157345.18135718 1.8371633.825 2.5.64910713.6050295 1.4774924.982366 2.36 1.075-.50501671 1.0796431-1.1386063 2.0943266-1.887 3.022-.3429688.4340958-.26909577 1.0640311.16500003 1.407.4340958.3429688 1.06403113.2690958 1.40699997-.165.95607661-1.1840863 1.74417702-2.4944463 2.342-3.894l.093-.214c.917 0 1.862-.061 2.786-.122.06299929.5360815.15412493 1.0684822.273 1.595.10313165.4551221.50733963.7784055.974.779.07464354-.0000712.14906586-.0081169.222-.024.25959592-.0584057.4852105-.2178629.6269095-.4430799.141699-.2252169.1877967-.4976202.1280905-.7569201-.4220195-1.8510885-.43975625-3.7714322-.052-5.63.8584486-3.7159553 2.9846207-7.0167729 6.013-9.335zm-12.097 11.175c-.03765859.238515-.09793029.472905-.18.7-.62097216.0117552-1.22855622-.1811677-1.729-.549-.21688414-.2160947-.32487589-.5183981-.294-.823.05751367-.2710845.21909086-.5087825.45-.662.21632875-.1489627.47335657-.2275378.736-.225.25938032-.010174.51255295.0809107.706.254.29629686.3652829.41070242.8453448.311 1.305z"/><path id="Shape" d="m57.328 27.806-3.006-.329c-1.0151742-2.0009629-2.3768924-3.8062044-4.022-5.332.4763023-.8832719.7816449-1.8484935.9-2.845.1530911-1.4688462.1295901-2.9507468-.07-4.414l-.014-.125c.0103897-1.328246-.490945-2.6095144-1.4-3.578-.969-.853-2.791-1.316-5.962 1.318-1.401159 1.1446896-2.4919443 2.6233709-3.172 4.3-.088.228-.146.456-.213.685-.5-.161-1-.31-1.494-.444 1.730417-3.7130151 1.4438567-8.05275859-.7597599-11.50600314s-6.0188031-5.54126816-10.1152401-5.53599686c-2.3261295-.00634344-4.6030632.66953976-6.549 1.944-.298674.19649607-.4698308.53740663-.4489973.89431398.0208336.35690734.2304924.67558875.55.83600002.3195077.16041126.7003233.13818209.9989973-.058314 1.6193449-1.05967241 3.5137602-1.62149571 5.449-1.616 4.8174643-.01052028 8.9568232 3.4172057 9.8446435 8.1521658.8878204 4.7349602-1.728603 9.4294172-6.2226435 11.1648342-2.392593-.4213279-4.840407-.4213279-7.233 0-3.8555323-1.4804731-6.3972335-5.1870045-6.389-9.317-.0068003-1.579897.367079-3.13818473 1.09-4.543.1632704-.31778774.1446007-.69853944-.0489764-.99882961-.193577-.30029018-.5326525-.4744976-.8895-.45700001-.3568474.01749758-.6772532.22404187-.8405236.54182962-2.8441074 5.4988862-1.0027557 12.2597804 4.237 15.557-.7493639.2739366-1.4623422.6386537-2.123 1.086-.4417404.32109-.5441927.9371893-.2301415 1.3839613s.92845.5589723 1.3801415.2520387c1.2150327-.7621677 2.5708978-1.272275 3.987-1.5h.028c2.2540573-.4186686 4.5659427-.4186686 6.82 0h.021c1.4184222.2272173 2.7766752.7373273 3.994 1.5.2920428.2122786.6758351.2506529 1.0041265.1003998s.5501001-.4658001.5803245-.8255747c.0302243-.3597745-.1358294-.7079056-.434451-.9108251-.6562035-.446447-1.3644388-.8111428-2.109-1.086 1.3321601-.8522986 2.4836808-1.9582886 3.389-3.255.732.185 1.465.4 2.2.646-.0163251.5669519.0363956 1.1337839.157 1.688.0761012.3522809.3358789.6363581.6799692.7435733s.7192539.0209796.9819924-.2257222c.2627384-.2467017.3723995-.6156987.2870384-.9658511-.2325192-1.0726662-.1338323-2.1906534.283-3.206.5564224-1.3588712 1.4448769-2.5564281 2.584-3.483 1.58-1.314 2.837-1.818 3.364-1.355.4965405.6588857.7536779 1.4673341.729 2.292l.014.128c.1802361 1.3057978.205076 2.6283553.074 3.94-.0835977 1.4173329-.8178397 2.7163764-1.989 3.519-.3207232.1666612-.5265519.4934205-.5383633.854668-.0118115.3612476.1722328.7007543.4813842.88801s.6952897.1931137 1.0099791.015322c.3106165-.1732779.6019216-.3791022.869-.614 1.544402 1.4568164 2.7997395 3.1922357 3.7 5.115.1463918.3200068.4502089.5395147.8.578l3.559.39c.5085381.0567888.892161.4883107.889 1v7.42c.003161.5116893-.3804619.9432112-.889 1l-3.559.39c-.3508946.0394612-.6549665.2610536-.8.583-.452273.9842254-1.0048639 1.9191732-1.649 2.79-1.1618954-.5707903-1.953287-1.6938127-2.1-2.98-.044486-.5179801-.4784534-.9154727-.9983393-.9144293s-.9522542.4002748-.9946607.9184293c.1294879 1.88666 1.1862641 3.5862678 2.821 4.537-1.3561719 1.4516949-2.912117 2.7029159-4.621 3.716-.2801957.1668976-.4606942.4606281-.483.786l-.647 8.961h-6.142l-.39-5.57c-.0196945-.2845776-.1599854-.5471984-.3855757-.7217873s-.5150038-.2445251-.7954243-.1922127l-.174.032c-2.7562494.6013348-5.6097506.6013348-8.366 0l-.174-.032c-.2804205-.0523124-.569834.0176238-.7954243.1922127s-.3658812.4372097-.3855757.7217873l-.392 5.57h-6.143l-.64-8.96c-.0230903-.3248566-.2029282-.6181193-.482-.786-.176-.106-.344-.212-.558-.346-1.6884316-1.076706-3.207375-2.3984935-4.507-3.922-.3540426-.404748-.9616603-.4647218-1.388-.137-.2150129.1654596-.3521701.4123525-.3790537.6823242s.0588922.5390642.2370537.7436758c1.431117 1.6782654 3.1037237 3.1345083 4.963 4.321l.006-.01c.017.012.027.031.045.042l.105.066.6 8.455c.083226 1.043846.9528471 1.84955 2 1.853h6.14c1.0490713-.0051815 1.9188337-.8140605 2-1.86l.312-4.455c1.1930734.2233228 2.4053002.3281658 3.619.313 1.2140996.0145725 2.4266653-.0909408 3.62-.315l.313 4.462c.083226 1.043846.9528471 1.84955 2 1.853h6.14c1.0487392-.00414 1.9187745-.8124029 2-1.858l.6-8.448c3.2591394-1.9618697 5.9090377-4.790759 7.654-8.171l3-.329c1.5218929-.1668803 2.6739567-1.4529852 2.673-2.984v-7.42c.0010125-1.5306723-1.1505035-2.8166468-2.672-2.984z"/><path id="Shape" d="m49 29c0-.5522847-.4477153-1-1-1s-1 .4477153-1 1c0 1.1045695-.8954305 2-2 2s-2-.8954305-2-2c0-.5522847-.4477153-1-1-1s-1 .4477153-1 1c0 2.209139 1.790861 4 4 4s4-1.790861 4-4z"/><path id="Shape" d="m29 20v-.091c2.2216487-.3136273 3.9034577-2.1674013 4-4.409-.0965423-2.2415987-1.7783513-4.0953727-4-4.409v-4.937c1.1128409.25246244 1.9267959 1.20723172 2 2.346 0 .55228473.4477153.99999994 1 .99999994s1-.44771521 1-.99999994c-.0965423-2.24159872-1.7783513-4.09537268-4-4.409v-.091c0-.55228475-.4477153-1-1-1s-1 .44771525-1 1v.091c-2.2216487.31362732-3.9034577 2.16740128-4 4.409.0965423 2.2415987 1.7783513 4.0953727 4 4.409v4.937c-1.1128409-.2524624-1.9267959-1.2072317-2-2.346 0-.5522847-.4477153-1-1-1s-1 .4477153-1 1c.0965423 2.2415987 1.7783513 4.0953727 4 4.409v.091c0 .5522847.4477153 1 1 1s1-.4477153 1-1zm2-4.5c-.0732041 1.1387683-.8871591 2.0935376-2 2.346v-4.692c1.1128409.2524624 1.9267959 1.2072317 2 2.346zm-6-7c.0732041-1.13876828.8871591-2.09353756 2-2.346v4.692c-1.1128409-.2524624-1.9267959-1.20723172-2-2.346z"/></g></g></g></svg>