<svg height="512" viewBox="0 0 64 64" width="512" xmlns="http://www.w3.org/2000/svg"><g id="Receipt"><path d="m3 43a6 6 0 0 0 12 0v-12h-12z" fill="#9bc9ff"/><g fill="#1e81ce"><path d="m59.95 35.7-3.95-3.94v-28.76a.99.99 0 0 0 -1-1l-40 .03a1 1 0 0 0 -1 1v26.97h-11a1 1 0 0 0 -1 1v12a7.008 7.008 0 0 0 7 7h33.87a10.878 10.878 0 0 0 1.73 7.69l.4.61v2.7a1 1 0 0 0 2 0v-3a.967.967 0 0 0 -.17-.55l-.57-.87a8.907 8.907 0 0 1 -1.35-6.58h5.28a7.3 7.3 0 0 0 1.56 4.04l.47.58a1 1 0 0 0 .78.38.961.961 0 0 0 .62-.22.982.982 0 0 0 .16-1.4l-.47-.59a5.314 5.314 0 0 1 .4-7.08 1.008 1.008 0 0 0 0-1.42l-4.98-4.98a1.077 1.077 0 0 1 -.14-1.45.959.959 0 0 1 .75-.34.972.972 0 0 1 .71.29l6.26 6.26a1 1 0 0 0 1.42-1.42l-1.73-1.72v-6.35l2.53 2.54a4.945 4.945 0 0 1 1.47 3.54v20.34a1 1 0 0 0 2 0v-20.34a7 7 0 0 0 -2.05-4.96zm-50.95 12.3a5 5 0 0 1 -5-5v-11h10v11a5 5 0 0 1 -5 5zm45-9.07-2.53-2.54a3.006 3.006 0 1 0 -4.16 4.34l4.32 4.32a7.246 7.246 0 0 0 -1.31 2.95h-36.43a6.97 6.97 0 0 0 2.11-5v-38.97l38-.03z"/><path d="m35 18c-1.221 0-2-.592-2-1a1 1 0 0 0 -2 0c0 1.421 1.259 2.571 3 2.9v1.1a1 1 0 0 0 2 0v-1.1c1.741-.327 3-1.477 3-2.9 0-1.682-1.757-3-4-3-1.221 0-2-.592-2-1s.779-1 2-1 2 .592 2 1a1 1 0 0 0 2 0c0-1.421-1.259-2.571-3-2.9v-1.1a1 1 0 0 0 -2 0v1.1c-1.741.327-3 1.477-3 2.9 0 1.682 1.757 3 4 3 1.221 0 2 .592 2 1s-.779 1-2 1z"/><path d="m49 24h-22a1 1 0 0 0 0 2h22a1 1 0 0 0 0-2z"/><path d="m49 28h-22a1 1 0 0 0 0 2h22a1 1 0 0 0 0-2z"/><path d="m23 24h-2a1 1 0 0 0 0 2h2a1 1 0 0 0 0-2z"/><path d="m23 28h-2a1 1 0 0 0 0 2h2a1 1 0 0 0 0-2z"/><path d="m49 32h-22a1 1 0 0 0 0 2h22a1 1 0 0 0 0-2z"/><path d="m43 36h-16a1 1 0 0 0 0 2h16a1 1 0 0 0 0-2z"/><path d="m43 40h-16a1 1 0 0 0 0 2h16a1 1 0 0 0 0-2z"/><path d="m23 32h-2a1 1 0 0 0 0 2h2a1 1 0 0 0 0-2z"/><path d="m23 36h-2a1 1 0 0 0 0 2h2a1 1 0 0 0 0-2z"/><path d="m23 40h-2a1 1 0 0 0 0 2h2a1 1 0 0 0 0-2z"/></g></g></svg>