<?xml version="1.0" encoding="iso-8859-1"?>
<!-- Generator: Adobe Illustrator 19.0.0, SVG Export Plug-In . SVG Version: 6.00 Build 0)  -->
<svg version="1.1" id="Capa_1" xmlns="http://www.w3.org/2000/svg" xmlns:xlink="http://www.w3.org/1999/xlink" x="0px" y="0px"
	 viewBox="0 0 511.879 511.879" style="enable-background:new 0 0 511.879 511.879;" xml:space="preserve">
<path style="fill:#D7E9FF;" d="M131.969,306.532c0,3.679-0.559,7.279-1.601,10.716c-4.557,14.638-18.234,25.275-34.39,25.275
	c-14.958,0-27.673-9.037-33.191-21.995c-1.761-4.233-2.8-9.037-2.8-13.996c0-19.918,16.074-35.992,35.991-35.992
	S131.969,286.614,131.969,306.532z"/>
<path style="fill:#94C1FF;" d="M121.171,292.535c1.761,4.241,2.8,9.037,2.8,13.997c0,18.55-13.993,33.586-31.992,35.593
	c1.332,0.148,2.628,0.398,3.999,0.398c19.917,0,35.991-16.074,35.991-35.991c0-4.96-1.039-9.756-2.8-13.997
	c-5.519-12.958-18.234-21.995-33.191-21.995c-1.305,0-2.562,0.18-3.831,0.312C105.261,272.368,116.176,280.811,121.171,292.535z"/>
<path style="fill:#D7E9FF;" d="M443.896,306.532c0,3.679-0.562,7.279-1.602,10.716c-4.554,14.638-18.237,25.275-34.39,25.275
	s-29.838-10.638-34.391-25.275c-1.039-3.358-1.602-6.951-1.602-10.716c0-19.918,16.074-35.992,35.992-35.992
	S443.896,286.614,443.896,306.532z"/>
<path style="fill:#FFFFFF;" d="M382.708,320.528c-1.758-4.233-2.797-9.037-2.797-13.996c0-18.543,13.997-33.586,31.992-35.586
	c-1.327-0.148-2.624-0.406-3.998-0.406c-19.918,0-35.992,16.074-35.992,35.992c0,4.959,1.039,9.763,2.797,13.996
	c5.521,12.958,18.237,21.995,33.195,21.995c1.304,0,2.562-0.18,3.826-0.312C398.626,340.704,387.706,332.26,382.708,320.528z"/>
<path style="fill:#94C1FF;" d="M433.101,292.535c1.758,4.241,2.796,9.037,2.796,13.997c0,18.55-13.996,33.586-31.992,35.593
	c1.328,0.148,2.625,0.398,4,0.398c19.916,0,35.991-16.074,35.991-35.991c0-4.96-1.039-9.756-2.797-13.997
	c-5.521-12.958-18.237-21.995-33.194-21.995c-1.305,0-2.562,0.18-3.828,0.312C417.183,272.368,428.102,280.811,433.101,292.535z"/>
<g>
	<path style="fill:#3A3847;" d="M408.138,310.531c-2.202,0-4.03-1.789-4.03-3.999c0-2.211,1.75-3.999,3.952-3.999h0.078
		c2.219,0,3.999,1.788,3.999,3.999C412.137,308.742,410.357,310.531,408.138,310.531z"/>
	<path style="fill:#3A3847;" d="M96.216,310.531c-2.207,0-4.038-1.789-4.038-3.999c0-2.211,1.75-3.999,3.96-3.999h0.078
		c2.21,0,3.999,1.788,3.999,3.999C100.215,308.742,98.426,310.531,96.216,310.531z"/>
</g>
<path style="fill:#D7E9FF;" d="M363.915,222.555H43.99l10.958-7.197c134.526-84.859,248.746-31.672,291.204-5.198L363.915,222.555z"
	/>
<path style="fill:#94C1FF;" d="M67.985,222.555H339.92h23.994c103.976,7.998,135.968,31.512,135.968,31.512v44.467h7.998v19.995
	h-55.986l-9.6-1.281c1.039-3.437,1.602-7.037,1.602-10.716c0-19.918-16.075-35.992-35.991-35.992
	c-19.918,0-35.992,16.074-35.992,35.992c0,3.765,0.562,7.357,1.602,10.716l-9.6,1.281H139.967l-9.599-1.281
	c1.042-3.437,1.601-7.037,1.601-10.716c0-19.918-16.074-35.992-35.991-35.992s-35.991,16.074-35.991,35.992
	c0,4.959,1.039,9.763,2.8,13.996l-10.798-1.999c0,0-47.989,0-47.989-15.996c0-15.997,0-31.993,0-31.993h7.998v-7.994v-39.99H43.99
	L67.985,222.555L67.985,222.555z"/>
<g>
	<path style="fill:#D7E9FF;" d="M11.998,222.555v15.996h7.998c15.997,0,15.997-7.998,15.997-7.998v-7.998H11.998z"/>
	<path style="fill:#D7E9FF;" d="M467.89,240.387v14.16l31.992,10.666v-11.146C499.882,254.067,491.025,247.651,467.89,240.387z"/>
</g>
<g>
	<path style="fill:#FFFFFF;" d="M258.854,222.555h16.566l10.778-40.232c-4.929-1.605-10.045-3.128-15.356-4.522L258.854,222.555z"/>
	<path style="fill:#FFFFFF;" d="M279.559,222.555h4.133l10.083-37.636c-1.234-0.445-2.515-0.875-3.78-1.308L279.559,222.555z"/>
	<path style="fill:#FFFFFF;" d="M159.1,222.555h16.562l14.145-52.796c-5.573,0.34-11.224,0.824-16.98,1.566L159.1,222.555z"/>
	<path style="fill:#FFFFFF;" d="M179.802,222.555h4.136l14.25-53.175c-1.39,0.035-2.769,0.059-4.171,0.121L179.802,222.555z"/>
</g>
<g>
	<path style="fill:#D7E9FF;" d="M59.987,318.529c0,0-47.989,0-47.989-15.996c0-15.997,0-31.993,0-31.993H4c0,0,0,15.996,0,31.993
		c0,15.996,47.989,15.996,47.989,15.996l10.798,1.999c-0.207-0.492-0.297-1.062-0.48-1.569L59.987,318.529z"/>
	<polygon style="fill:#D7E9FF;" points="19.996,262.545 19.996,222.555 11.998,222.555 11.998,262.545 11.998,270.54 19.996,270.54 
			"/>
</g>
<g>
	<rect x="499.88" y="298.53" style="fill:#5C9EFF;" width="7.998" height="19.995"/>
	<path style="fill:#5C9EFF;" d="M363.915,222.555h-7.998c103.976,7.998,135.968,31.512,135.968,31.512v44.467h7.998v-44.467
		C499.882,254.067,467.89,230.553,363.915,222.555z"/>
</g>
<g>
	<path style="fill:#FFFFFF;" d="M70.785,320.528c-1.761-4.233-2.8-9.037-2.8-13.996c0-18.543,13.992-33.586,31.992-35.586
		c-1.332-0.148-2.628-0.406-3.999-0.406c-19.917,0-35.991,16.074-35.991,35.992c0,4.959,1.039,9.763,2.8,13.996
		c5.519,12.958,18.234,21.995,33.191,21.995c1.304,0,2.562-0.18,3.831-0.312C86.695,340.704,75.78,332.26,70.785,320.528z"/>
	<rect x="12" y="222.56" style="fill:#FFFFFF;" width="7.998" height="15.996"/>
</g>
<path style="fill:#94C1FF;" d="M491.884,262.545l7.998,2.668v-11.146c0,0-2.46-1.749-7.998-4.432V262.545z"/>
<g>
	<path style="fill:#116FFF;" d="M96.216,310.531c-2.207,0-4.038-1.789-4.038-3.999c0-2.211,1.75-3.999,3.96-3.999h0.078
		c2.21,0,3.999,1.788,3.999,3.999C100.215,308.742,98.426,310.531,96.216,310.531z"/>
	<path style="fill:#116FFF;" d="M51.988,322.528C43.307,322.528,0,321.567,0,302.533V270.54c0-2.21,1.789-3.998,3.999-3.998h15.996
		c2.211,0,3.999,1.788,3.999,3.998c0,2.211-1.788,4-3.999,4H7.999v27.993c0,7.818,25.549,11.989,43.99,11.997
		c2.21,0,3.999,1.796,3.999,3.999C55.987,320.739,54.195,322.528,51.988,322.528z"/>
	<path style="fill:#116FFF;" d="M499.882,258.047c-0.82,0-1.64-0.25-2.358-0.766l0,0c-0.312-0.23-32.844-22.964-133.922-30.739
		c-0.82-0.062-1.609-0.383-2.249-0.914c-1.414-1.183-143.806-116.566-315.109,0.23c-0.664,0.453-1.449,0.695-2.253,0.695H11.998
		c-2.21,0-3.999-1.789-3.999-3.999s1.789-3.999,3.999-3.999H42.76c91.724-62.091,174.673-58.709,228.176-44.86
		c53.535,13.844,88.167,39.92,94.525,44.97c102.944,8.08,135.452,31.177,136.787,32.16c1.781,1.305,2.164,3.808,0.852,5.589
		C502.319,257.481,501.109,258.047,499.882,258.047z"/>
	<path style="fill:#116FFF;" d="M499.882,298.534c-2.21,0-3.999-1.789-3.999-4v-40.486c0-2.21,1.789-3.999,3.999-3.999
		s3.999,1.789,3.999,3.999v40.486C503.881,296.745,502.092,298.534,499.882,298.534z"/>
	<path style="fill:#116FFF;" d="M95.978,346.522c-22.05,0-39.991-17.941-39.991-39.99c0-22.05,17.941-39.99,39.991-39.99
		c22.049,0,39.99,17.94,39.99,39.99C135.968,328.581,118.027,346.522,95.978,346.522z M95.978,274.54
		c-17.641,0-31.992,14.355-31.992,31.992c0,17.645,14.352,31.992,31.992,31.992s31.992-14.348,31.992-31.992
		C127.97,288.895,113.619,274.54,95.978,274.54z"/>
	<path style="fill:#116FFF;" d="M507.88,322.528h-55.986c-2.211,0-3.999-1.789-3.999-3.999c0-2.211,1.788-3.999,3.999-3.999h55.986
		c2.211,0,3.999,1.788,3.999,3.999C511.879,320.739,510.091,322.528,507.88,322.528z"/>
	<path style="fill:#116FFF;" d="M363.915,322.528H139.967c-2.21,0-3.999-1.789-3.999-3.999c0-2.211,1.789-3.999,3.999-3.999h223.947
		c2.211,0,3.999,1.788,3.999,3.999C367.914,320.739,366.126,322.528,363.915,322.528z"/>
	<path style="fill:#116FFF;" d="M11.998,266.542c-2.21,0-3.999-1.789-3.999-3.996v-39.99c0-2.21,1.789-3.999,3.999-3.999
		c2.211,0,3.999,1.789,3.999,3.999v39.99C15.997,264.752,14.209,266.542,11.998,266.542z"/>
	<path style="fill:#116FFF;" d="M19.996,242.55c-2.21,0-3.999-1.788-3.999-3.999c0-2.21,1.789-3.999,3.999-3.999
		c9.049,0,11.81-2.761,12.005-4.222c0-2.21,1.789-3.886,3.995-3.886c2.21,0,3.995,1.898,3.995,4.108
		C39.991,231.042,39.765,242.55,19.996,242.55z"/>
	<path style="fill:#116FFF;" d="M95.978,298.534c-2.21,0-3.999-1.789-3.999-4v-7.998c0-2.21,1.789-3.998,3.999-3.998
		c2.21,0,3.999,1.788,3.999,3.998v7.998C99.977,296.745,98.189,298.534,95.978,298.534z"/>
	<path style="fill:#116FFF;" d="M95.978,330.526c-2.21,0-3.999-1.789-3.999-3.999v-7.998c0-2.211,1.789-3.999,3.999-3.999
		c2.21,0,3.999,1.788,3.999,3.999v7.998C99.977,328.737,98.189,330.526,95.978,330.526z"/>
	<path style="fill:#116FFF;" d="M87.496,302.048c-1.023,0-2.046-0.391-2.827-1.172l-5.655-5.655c-1.562-1.562-1.562-4.092,0-5.654
		c1.562-1.562,4.093-1.562,5.655,0l5.654,5.654c1.562,1.562,1.562,4.094,0,5.655C89.542,301.658,88.519,302.048,87.496,302.048z"/>
	<path style="fill:#116FFF;" d="M110.115,324.668c-1.023,0-2.046-0.39-2.828-1.171l-5.655-5.655c-1.562-1.562-1.562-4.093,0-5.655
		s4.093-1.562,5.655,0l5.655,5.655c1.562,1.562,1.562,4.093,0,5.655C112.162,324.278,111.138,324.668,110.115,324.668z"/>
	<path style="fill:#116FFF;" d="M83.981,310.531h-7.998c-2.211,0-3.999-1.789-3.999-3.999c0-2.211,1.788-3.999,3.999-3.999h7.998
		c2.21,0,3.999,1.788,3.999,3.999C87.98,308.742,86.191,310.531,83.981,310.531z"/>
	<path style="fill:#116FFF;" d="M115.973,310.531h-7.998c-2.21,0-3.999-1.789-3.999-3.999c0-2.211,1.789-3.999,3.999-3.999h7.998
		c2.21,0,3.999,1.788,3.999,3.999C119.972,308.742,118.184,310.531,115.973,310.531z"/>
	<path style="fill:#116FFF;" d="M81.84,324.668c-1.023,0-2.046-0.39-2.827-1.171c-1.562-1.562-1.562-4.094,0-5.655l5.655-5.655
		c1.562-1.562,4.093-1.562,5.654,0c1.562,1.562,1.562,4.093,0,5.655l-5.654,5.655C83.887,324.278,82.864,324.668,81.84,324.668z"/>
	<path style="fill:#116FFF;" d="M104.461,302.048c-1.023,0-2.046-0.391-2.828-1.172c-1.562-1.562-1.562-4.093,0-5.655l5.655-5.654
		c1.562-1.562,4.093-1.562,5.655,0s1.562,4.093,0,5.654l-5.655,5.655C106.507,301.658,105.484,302.048,104.461,302.048z"/>
	<path style="fill:#116FFF;" d="M407.905,346.522c-22.05,0-39.991-17.941-39.991-39.99c0-22.05,17.941-39.99,39.991-39.99
		c22.049,0,39.99,17.94,39.99,39.99C447.895,328.581,429.954,346.522,407.905,346.522z M407.905,274.54
		c-17.637,0-31.993,14.355-31.993,31.992c0,17.645,14.356,31.992,31.993,31.992c17.636,0,31.992-14.348,31.992-31.992
		C439.897,288.895,425.541,274.54,407.905,274.54z"/>
	<path style="fill:#116FFF;" d="M408.138,310.531c-2.202,0-4.03-1.789-4.03-3.999c0-2.211,1.75-3.999,3.952-3.999h0.078
		c2.219,0,3.999,1.788,3.999,3.999C412.137,308.742,410.357,310.531,408.138,310.531z"/>
	<path style="fill:#116FFF;" d="M407.905,298.534c-2.211,0-4-1.789-4-4v-7.998c0-2.21,1.789-3.998,4-3.998
		c2.21,0,3.998,1.788,3.998,3.998v7.998C411.903,296.745,410.115,298.534,407.905,298.534z"/>
	<path style="fill:#116FFF;" d="M407.905,330.526c-2.211,0-4-1.789-4-3.999v-7.998c0-2.211,1.789-3.999,4-3.999
		c2.21,0,3.998,1.788,3.998,3.999v7.998C411.903,328.737,410.115,330.526,407.905,330.526z"/>
	<path style="fill:#116FFF;" d="M399.422,302.048c-1.023,0-2.047-0.391-2.828-1.172l-5.654-5.655c-1.562-1.562-1.562-4.092,0-5.654
		c1.562-1.562,4.092-1.562,5.654,0l5.655,5.654c1.562,1.562,1.562,4.094,0,5.655C401.468,301.658,400.445,302.048,399.422,302.048z"
		/>
	<path style="fill:#116FFF;" d="M422.042,324.668c-1.023,0-2.047-0.39-2.827-1.171l-5.655-5.655c-1.562-1.562-1.562-4.093,0-5.655
		s4.093-1.562,5.655,0l5.654,5.655c1.562,1.562,1.562,4.093,0,5.655C424.088,324.278,423.065,324.668,422.042,324.668z"/>
	<path style="fill:#116FFF;" d="M395.907,310.531h-7.998c-2.21,0-3.999-1.789-3.999-3.999c0-2.211,1.789-3.999,3.999-3.999h7.998
		c2.211,0,3.999,1.788,3.999,3.999C399.906,308.742,398.118,310.531,395.907,310.531z"/>
	<path style="fill:#116FFF;" d="M427.899,310.531h-7.998c-2.21,0-3.998-1.789-3.998-3.999c0-2.211,1.788-3.999,3.998-3.999h7.998
		c2.211,0,4,1.788,4,3.999C431.899,308.742,430.11,310.531,427.899,310.531z"/>
	<path style="fill:#116FFF;" d="M393.767,324.668c-1.023,0-2.047-0.39-2.827-1.171c-1.562-1.562-1.562-4.094,0-5.655l5.654-5.655
		c1.562-1.562,4.093-1.562,5.655,0s1.562,4.093,0,5.655l-5.655,5.655C395.813,324.278,394.79,324.668,393.767,324.668z"/>
	<path style="fill:#116FFF;" d="M416.386,302.048c-1.022,0-2.046-0.391-2.827-1.172c-1.562-1.562-1.562-4.093,0-5.655l5.655-5.654
		c1.562-1.562,4.093-1.562,5.654,0c1.562,1.562,1.562,4.093,0,5.654l-5.654,5.655C418.433,301.658,417.41,302.048,416.386,302.048z"
		/>
	<path style="fill:#116FFF;" d="M339.92,226.554H67.985c-2.211,0-3.999-1.789-3.999-3.999s1.788-3.999,3.999-3.999H339.92
		c2.21,0,3.999,1.789,3.999,3.999S342.13,226.554,339.92,226.554z"/>
	<path style="fill:#116FFF;" d="M227.947,210.558c-2.21,0-3.999-1.789-3.999-3.999v-23.994c0-2.211,1.789-3.999,3.999-3.999
		s3.999,1.788,3.999,3.999v23.994C231.946,208.769,230.157,210.558,227.947,210.558z"/>
	<path style="fill:#116FFF;" d="M123.971,210.558c-2.21,0-3.999-1.789-3.999-3.999v-7.998c0-2.21,1.789-3.999,3.999-3.999
		c2.21,0,3.999,1.789,3.999,3.999v7.998C127.97,208.769,126.182,210.558,123.971,210.558z"/>
	<path style="fill:#116FFF;" d="M147.965,250.548h-15.996c-2.21,0-3.999-1.788-3.999-3.999c0-2.21,1.789-3.999,3.999-3.999h15.996
		c2.211,0,4,1.789,4,3.999C151.965,248.76,150.176,250.548,147.965,250.548z"/>
	<path style="fill:#116FFF;" d="M259.939,250.548h-15.992c-2.21,0-3.999-1.788-3.999-3.999c0-2.21,1.789-3.999,3.999-3.999h15.992
		c2.211,0,3.999,1.789,3.999,3.999C263.938,248.76,262.15,250.548,259.939,250.548z"/>
	<path style="fill:#116FFF;" d="M491.884,266.542c-0.422,0-0.844-0.062-1.266-0.203l-23.994-7.999
		c-2.093-0.694-3.226-2.96-2.53-5.058c0.703-2.093,2.952-3.222,5.061-2.526l23.995,7.998c2.093,0.695,3.226,2.96,2.53,5.058
		C495.118,265.487,493.556,266.542,491.884,266.542z"/>
	<path style="fill:#116FFF;" d="M467.89,258.546c-2.21,0-3.999-1.788-3.999-3.999v-7.998c0-2.21,1.789-3.999,3.999-3.999
		s3.999,1.789,3.999,3.999v7.998C471.889,256.758,470.1,258.546,467.89,258.546z"/>
	<path style="fill:#116FFF;" d="M507.88,322.528c-2.21,0-3.999-1.789-3.999-3.999v-15.996c0-2.211,1.789-3.999,3.999-3.999
		c2.211,0,3.999,1.788,3.999,3.999v15.996C511.879,320.739,510.091,322.528,507.88,322.528z"/>
</g>
<g>
</g>
<g>
</g>
<g>
</g>
<g>
</g>
<g>
</g>
<g>
</g>
<g>
</g>
<g>
</g>
<g>
</g>
<g>
</g>
<g>
</g>
<g>
</g>
<g>
</g>
<g>
</g>
<g>
</g>
</svg>
